<svg width="43" height="60" fill="none" xmlns="http://www.w3.org/2000/svg"><path fill-rule="evenodd" clip-rule="evenodd" d="M40.227 48.6l-3.864-1.933a6.498 6.498 0 002.528-5.151c0-3.613-2.946-6.56-6.559-6.56s-6.559 2.947-6.559 6.56a6.551 6.551 0 003.578 5.831v3.888l-2.195-.465-.119-.024a1.884 1.884 0 00-.381-.036c-.633 0-1.229.25-1.682.704l-1.67 1.693 6.07 6.07a2.76 2.76 0 001.968.823h7.513a2.371 2.371 0 002.35-1.992l.953-5.616a3.569 3.569 0 00-1.931-3.793zm-.418 3.398l-.954 5.617h-7.513a.44.44 0 01-.286-.12l-4.389-4.388 5.069 1.062V41.516a.59.59 0 01.596-.596.59.59 0 01.596.596v7.155h2.1l4.125 2.063a1.2 1.2 0 01.656 1.264zM28.16 41.516a4.178 4.178 0 014.173-4.174 4.178 4.178 0 014.174 4.174 4.132 4.132 0 01-1.193 2.91v-2.91a2.983 2.983 0 00-5.962 0v2.91a4.132 4.132 0 01-1.193-2.91zm-15.034-3.774c-5.746-2.706-9.858-8.293-10.49-14.9H0C.896 33.666 9.945 42.17 20.997 42.17l1.16-.053-6.695-6.694-2.336 2.32zm1.563-11.456c-.334 0-.65-.053-.913-.14-.281-.106-.51-.229-.703-.422a1.742 1.742 0 01-.457-.65 2.097 2.097 0 01-.158-.826h-2.284c0 .632.123 1.195.369 1.67.246.474.58.878.984 1.212.421.316.896.562 1.44.72a5.3 5.3 0 001.687.263c.65 0 1.265-.087 1.81-.263a4.287 4.287 0 001.458-.773 3.49 3.49 0 00.967-1.265c.228-.51.351-1.072.351-1.705 0-.334-.035-.667-.123-.984a2.935 2.935 0 00-.404-.896 3.179 3.179 0 00-.703-.755 3.61 3.61 0 00-1.072-.545 3.69 3.69 0 001.564-1.318c.176-.263.299-.527.387-.808.088-.281.123-.562.123-.843 0-.633-.106-1.195-.317-1.687a3.13 3.13 0 00-.896-1.213c-.351-.334-.825-.58-1.353-.755a6.405 6.405 0 00-1.792-.246 5.19 5.19 0 00-1.757.28 4.468 4.468 0 00-1.388.792 3.95 3.95 0 00-.896 1.177 3.5 3.5 0 00-.316 1.493h2.284c0-.298.053-.562.158-.79.105-.229.246-.44.44-.598.192-.158.403-.299.667-.386a2.57 2.57 0 01.843-.14c.703 0 1.23.175 1.564.544.334.351.51.86.51 1.51 0 .317-.053.598-.14.862a1.528 1.528 0 01-.44.65 2.24 2.24 0 01-.72.422 2.957 2.957 0 01-1.02.158H13.09v1.81h1.353c.387 0 .738.035 1.055.123.316.088.58.228.79.404.211.193.387.422.51.703.123.28.176.615.176 1.001 0 .72-.211 1.265-.616 1.634-.404.404-.966.58-1.669.58zm15.023-10.402a5.852 5.852 0 00-2.003-1.353c-.773-.316-1.634-.474-2.583-.474H20.98v14.056h4.041c.966 0 1.863-.158 2.653-.474.79-.316 1.476-.755 2.038-1.335a5.93 5.93 0 001.3-2.091c.3-.826.457-1.74.457-2.759v-.703c0-1.019-.158-1.933-.456-2.758a5.851 5.851 0 00-1.3-2.109zm-.685 5.552c0 .738-.088 1.389-.246 1.986-.176.58-.422 1.09-.755 1.494-.334.404-.756.72-1.248.93-.51.212-1.09.317-1.74.317H23.44V16.025h1.704c1.265 0 2.232.404 2.882 1.212.667.808 1.001 1.968 1.001 3.497v.702zM20.997 0l-1.16.053 6.695 6.694L28.87 4.41c5.746 2.724 9.857 8.294 10.472 14.9h2.636C41.098 8.504 32.049 0 20.997 0z" fill="#4E4E4E"/></svg>