<svg xmlns="http://www.w3.org/2000/svg" width="40" height="40" viewBox="0 0 10.583 10.583"><path d="M.668 5.746L3.107 8.22 9.689.669l-.054 1.767" fill="none" stroke="#000" stroke-width=".265"/><path d="M.682 6.98l2.723 2.689 6.23-7.233M.668 5.746L.682 6.98" fill="none" stroke="#000" stroke-width=".265"/><path d="M.898 5.782c-.029-.036-.053-.075-.08-.113a.31.31 0 00-.058-.063c-.137-.113-.297.08-.16.193.002.001.014.008.015.017.025.035.048.071.075.105.098.147.306.008.208-.14zm-.314.889a.59.59 0 00-.05.163.355.355 0 00.121.302c.123.127.303-.047.18-.174-.012-.013-.023-.028-.037-.04-.007-.014-.016-.031-.017-.047a.327.327 0 01.027-.092c.079-.158-.145-.27-.224-.112zM9.5 2.187a1.079 1.079 0 01.013.216c0 .01 0 .022-.003.032V2.43c.001-.007.003-.008.006-.016.003-.003.012-.009.008-.01a.581.581 0 00-.05.039c-.134.116.031.305.164.189.022-.02.051-.032.07-.056.008-.011.017-.021.024-.033a.266.266 0 00.032-.14c0-.04 0-.078-.002-.116a1.331 1.331 0 00-.015-.14c-.029-.176-.276-.134-.247.04z"/><path d="M2.008 8.455C1.245 7.701.608 7.058.59 7.025c-.022-.042-.032-.22-.035-.66a6.322 6.322 0 01.009-.602c.008 0 .01-.026.004-.056-.008-.04.005-.068.042-.094.071-.05.13-.017.256.144.113.143 2.2 2.26 2.235 2.266.013.003 1.527-1.722 3.365-3.832A727.39 727.39 0 019.813.361c.014.013-.06 2.086-.076 2.13a1.37 1.37 0 01-.173.216c-.086.093-1.5 1.732-3.144 3.643a409.532 409.532 0 01-3.007 3.475c-.01 0-.642-.616-1.405-1.37zm4.388-2.434C8.04 4.11 9.414 2.514 9.45 2.47l.065-.08.022-.681c.013-.376.02-.686.016-.69a1805.27 1805.27 0 00-6.409 7.34c-.025.032-.062.003-.271-.211-.134-.137-.655-.665-1.159-1.173L.797 6.05l.002.445.001.445.607.59c.334.326.916.9 1.292 1.278.377.377.69.685.697.684.007 0 1.357-1.563 3-3.472z"/><path d="M2.105 8.177L.825 6.908l-.002-.401-.002-.402.253.26c.935.958 2.05 2.065 2.06 2.048.036-.052 6.388-7.328 6.394-7.322.003.003-.004.292-.016.642-.02.606-.024.64-.074.704-.116.147-6.03 7.008-6.042 7.008-.006 0-.588-.57-1.291-1.268z"/><path d="M2.003 8.45C1.237 7.695.599 7.049.585 7.015.558 6.95.538 5.763.564 5.763c.008 0 .01-.026.004-.056-.008-.04.005-.068.042-.094.071-.05.13-.017.254.14.052.067.577.608 1.167 1.204L3.104 8.04l.825-.945 3.352-3.843A395.139 395.139 0 019.814.36c.005.004-.055 2.043-.063 2.135 0 .003-.072.085-.16.181-.087.096-1.51 1.744-3.16 3.661a414.945 414.945 0 01-3.017 3.487c-.01 0-.645-.618-1.411-1.374zm3.066-.894l3.035-3.524 1.399-1.624.015-.254c.026-.434.04-1.116.024-1.116-.02 0 .202-.253-3.404 3.886L3.134 8.371c-.011.012-.52-.483-1.177-1.146L.8 6.058v.874l1.287 1.272c.708.699 1.3 1.267 1.316 1.262.016-.006.765-.865 1.666-1.91z"/><path d="M2.003 8.45C1.237 7.695.598 7.048.584 7.014c-.017-.04-.027-.296-.028-.708-.002-.641-.002-.644.05-.687.072-.058.126-.028.28.157.064.077.59.619 1.167 1.203l1.05 1.061.886-1.014A5426.17 5426.17 0 009.524.678c.155-.179.286-.321.29-.318.015.015-.062 2.122-.078 2.15a1476.683 1476.683 0 00-5.052 5.86 78.534 78.534 0 01-1.27 1.455c-.01 0-.645-.618-1.411-1.374zm2.284.012l3.006-3.49a2382.32 2382.32 0 012.177-2.53c.038-.042.046-.124.065-.72.012-.37.017-.678.01-.685-.006-.006-.034.016-.062.05C9.43 1.153 3.2 8.302 3.145 8.36c-.027.03-.2-.136-1.189-1.134L.8 6.058l.005.441.005.441 1.284 1.266a62.483 62.483 0 001.304 1.266c.01 0 .41-.455.89-1.01z"/><path d="M2.004 8.453C1.238 7.697.6 7.05.584 7.014c-.017-.042-.027-.289-.029-.708-.002-.644-.002-.644.051-.688.072-.058.126-.028.28.157.065.077.59.618 1.166 1.202l1.047 1.06.1-.11c.054-.06 1.563-1.789 3.353-3.842A596.59 596.59 0 019.813.36c.004.004-.008.485-.026 1.068-.03.953-.038 1.066-.076 1.113a2916.389 2916.389 0 00-5.747 6.664c-.293.34-.54.619-.55.62-.01 0-.645-.617-1.41-1.372zm1.76.611c.763-.876 5.651-6.557 5.7-6.622.047-.065.051-.11.071-.73.012-.365.017-.667.01-.674-.006-.006-.034.016-.062.05-.028.034-1.454 1.671-3.17 3.637a3772.287 3772.287 0 00-3.158 3.623c-.039.048-.066.022-1.197-1.12L.8 6.057v.435l.002.435.11.113c.292.299 2.47 2.43 2.483 2.43.008 0 .174-.183.37-.407z"/><path d="M2.012 8.462C1.25 7.712.612 7.067.593 7.03c-.028-.053-.035-.197-.038-.718l-.003-.65.054-.045c.073-.059.122-.03.304.18.078.091.604.632 1.167 1.203l1.024 1.037 1.607-1.84L8.06 2.355A157.04 157.04 0 019.814.36c.015.015-.061 2.12-.078 2.148a714.777 714.777 0 00-2.43 2.817 3549.107 3549.107 0 01-3.853 4.467c-.015.018-.034.033-.042.033-.009 0-.638-.614-1.4-1.364zm1.602.773c.18-.204 1.143-1.32 4.635-5.374.66-.767 1.215-1.416 1.233-1.442.024-.036.037-.212.051-.685.011-.35.014-.65.006-.665-.007-.016-.233.224-.522.555L5.843 5.267C4.377 6.949 3.163 8.342 3.145 8.36c-.03.03-.178-.11-1.19-1.134L.8 6.058v.434l.002.434 1.008.995C3.268 9.36 3.383 9.47 3.4 9.465c.008-.003.104-.106.214-.23z"/><path d="M2.013 8.464c-.762-.75-1.4-1.395-1.42-1.432-.027-.054-.035-.198-.038-.718l-.004-.65.054-.045c.074-.06.122-.032.305.18.08.09.604.631 1.168 1.202L3.1 8.039l3.353-3.843A540.85 540.85 0 019.814.36c.01.01-.03 1.387-.053 1.853l-.015.291-.253.288c-.14.159-1.416 1.639-2.838 3.289-3.19 3.703-3.213 3.73-3.237 3.74-.011.004-.643-.607-1.405-1.358zm1.742.606c.371-.424 2.046-2.366 4.295-4.98.786-.914 1.438-1.684 1.448-1.711.01-.027.025-.337.033-.69.015-.617.014-.638-.028-.604-.046.038-1.267 1.435-4.369 4.997a759.84 759.84 0 01-1.979 2.267c-.045.047-.053.04-1.2-1.122L.799 6.058l.002.432v.432l.95.938c1.477 1.46 1.632 1.612 1.648 1.605.009-.003.169-.18.356-.395z"/><path d="M2.013 8.465c-.761-.75-1.4-1.395-1.42-1.432-.027-.055-.035-.196-.039-.719l-.004-.65.055-.045c.076-.061.116-.035.352.226.105.117.63.658 1.167 1.202l.977.99.472-.54 2.574-2.95C9.559.632 9.806.351 9.815.361c.01.01-.03 1.38-.054 1.852l-.015.29-.394.454c-.217.25-1.595 1.847-3.061 3.549-2.752 3.195-2.846 3.302-2.875 3.315-.01.004-.641-.607-1.403-1.357zm1.486.894c.131-.14.699-.798 3.176-3.675 2.641-3.067 2.776-3.224 2.81-3.288.02-.037.033-.257.043-.7l.014-.646-.122.128c-.068.07-1.486 1.692-3.152 3.603a5048.25 5048.25 0 01-3.093 3.545l-.063.07-1.156-1.169L.799 6.058l.001.428.002.428.89.884c.98.974 1.69 1.673 1.697 1.673.003 0 .052-.05.11-.112z"/><path d="M2.705 9.15C1.077 7.546.627 7.094.594 7.03c-.028-.053-.036-.193-.04-.717l-.004-.65.055-.045c.072-.058.12-.033.287.156.069.077.594.618 1.167 1.201l1.04 1.06.072-.082 6.32-7.24c.173-.198.319-.356.324-.35.01.01-.03 1.435-.055 1.876l-.014.267-.24.276c-.133.152-1.442 1.668-2.909 3.37-3.067 3.56-3.154 3.66-3.181 3.67-.012.005-.332-.298-.711-.672zm.96.02c.24-.271 2.392-2.766 4.657-5.399.623-.725 1.147-1.348 1.162-1.385.019-.044.034-.289.043-.702l.014-.634-.111.118c-.12.126-2.375 2.708-4.756 5.445a449.44 449.44 0 01-1.507 1.725l-.058.059-1.155-1.17L.799 6.058l.001.431.002.432 1.28 1.263c.703.695 1.292 1.264 1.307 1.264.016 0 .14-.125.275-.278z"/><path d="M2.717 9.161C1.117 7.586.627 7.094.594 7.031c-.029-.054-.036-.192-.04-.717l-.004-.65.055-.045c.078-.063.116-.037.412.285.138.15.663.69 1.167 1.202l.917.93 3.352-3.842A437.652 437.652 0 019.815.362c.011.011-.031 1.51-.054 1.9l-.015.243-.311.359-2.979 3.454C3.6 9.632 3.446 9.81 3.416 9.822c-.012.005-.326-.293-.7-.66zm.975-.023c.42-.478 5.06-5.863 5.578-6.476.123-.146.221-.284.23-.324.019-.097.049-1.276.032-1.276-.016 0-1.217 1.371-4.209 4.807a556.349 556.349 0 01-2.156 2.469l-.058.059-1.155-1.17L.798 6.058l.002.427.002.428.795.79c1.484 1.472 1.772 1.75 1.803 1.74a2.96 2.96 0 00.292-.305z"/><path d="M2.186 8.637C.65 7.124.616 7.09.58 6.99c-.022-.06-.03-.255-.03-.705v-.622l.055-.045c.079-.064.111-.04.459.333.164.175.689.716 1.167 1.201l.87.882.285-.327 5.794-6.64c.343-.394.63-.71.635-.705.012.012-.032 1.552-.055 1.913l-.015.234-.158.18C9.5 2.788 8.13 4.379 6.54 6.223 3.69 9.532 3.45 9.807 3.416 9.822c-.01.004-.562-.53-1.229-1.185zm1.63.356c.8-.914 5.384-6.243 5.59-6.497l.091-.112.022-.426c.011-.235.018-.534.014-.664l-.006-.238-.239.27-3.15 3.61a997.826 997.826 0 01-2.971 3.402l-.059.059-1.155-1.17L.798 6.058l.002.427.002.428.736.73c1.291 1.283 1.828 1.805 1.855 1.805.014 0 .205-.205.423-.455z"/><path d="M2.257 8.708C.737 7.212.616 7.088.58 6.99c-.022-.06-.03-.255-.03-.705v-.622l.055-.045c.047-.038.063-.04.108-.015.029.016.208.194.398.395.19.201.715.742 1.168 1.2l.822.836.604-.693C7.13 3.412 9.698.47 9.755.412l.07-.07-.014.519-.037 1.08-.022.562-.303.348c-.167.192-1.54 1.784-3.052 3.538C3.693 9.527 3.45 9.807 3.415 9.822c-.01.004-.53-.497-1.158-1.114zm1.476.38c.53-.604 5.016-5.813 5.526-6.418.186-.219.23-.287.241-.366.007-.053.02-.357.028-.675l.014-.58-.067.072c-.114.121-.974 1.105-3.574 4.087A1131.67 1131.67 0 013.25 8.243l-.14.154-1.156-1.17L.797 6.058l.002.427.003.428.7.695c1.248 1.239 1.866 1.84 1.89 1.84.013 0 .167-.162.34-.36z"/><path d="M2.811 9.256C1.447 7.916.627 7.093.594 7.03c-.029-.053-.039-.2-.048-.711l-.012-.644.063-.05c.054-.043.072-.046.116-.021.029.016.23.215.445.442.216.228.742.768 1.168 1.201l.775.788 1.972-2.263c3.82-4.38 4.613-5.29 4.683-5.36l.07-.07-.015.542c-.009.3-.025.785-.037 1.08l-.02.536-.895 1.035-2.97 3.444C3.731 9.483 3.45 9.81 3.416 9.822c-.011.004-.283-.25-.605-.566zm.991-.251c.643-.735 4.036-4.673 5.188-6.02.56-.656.504-.539.529-1.088.012-.255.018-.55.014-.654l-.006-.188L8.404 2.34c-.618.706-2.057 2.356-3.198 3.665a176.943 176.943 0 01-2.094 2.38c-.01 0-.536-.524-1.167-1.164L.797 6.058l.002.427.003.428.665.66C2.683 8.78 3.37 9.448 3.392 9.448c.013 0 .197-.2.41-.443z"/><path d="M2.835 9.28C1.525 7.994.627 7.093.593 7.03c-.03-.056-.039-.197-.048-.712l-.012-.643.064-.05c.054-.043.072-.046.116-.021.028.016.25.236.492.49.243.253.768.793 1.168 1.2l.728.74 2.291-2.628C9.081 1.174 9.682.486 9.756.412l.07-.07-.015.554c-.009.306-.025.792-.037 1.081l-.02.526-.446.513a2700.9 2700.9 0 00-2.97 3.444c-2.787 3.232-2.89 3.35-2.92 3.362-.012.004-.274-.24-.583-.542zm.885-.18c.533-.608 4.448-5.152 5.275-6.122.566-.664.5-.509.528-1.243.013-.344.016-.634.006-.644-.01-.01-.041.01-.07.044A3033.479 3033.479 0 005.29 5.91a189.885 189.885 0 01-2.177 2.474c-.01 0-.535-.523-1.167-1.163L.797 6.06l.002.426.003.427.618.613C2.572 8.67 3.372 9.448 3.393 9.448c.011 0 .159-.157.327-.348z"/><path d="M2.869 9.313C1.639 8.11.627 7.093.592 7.027.56 6.968.552 6.84.543 6.316l-.01-.64.064-.05c.054-.044.072-.047.116-.022.028.016.271.257.54.537.268.279.794.82 1.168 1.2l.68.693 1.157-1.329C7.523 2.956 9.67.498 9.744.424L9.826.34 9.81.92c-.008.318-.024.804-.035 1.08l-.02.5-1.403 1.625-2.964 3.437c-2.03 2.353-1.952 2.264-1.975 2.264a9.91 9.91 0 01-.544-.513zm.793-.15c.405-.459 4.642-5.373 5.404-6.267.175-.206.34-.408.364-.449.026-.04.04-.069.034-.062a1853.266 1853.266 0 01-5.39 6.255l-.681.786L2.119 8.17.845 6.914V6.6c0-.172-.006-.349-.014-.392-.012-.07.103.038.927.868.518.521 1.039 1.04 1.158 1.154l.216.206.386-.444c1.877-2.157 5.744-6.584 5.894-6.746l.101-.11.008.251.007.252.005-.28c.003-.161-.004-.275-.016-.27-.03.01-.018-.003-3.412 3.887a357.471 357.471 0 01-2.992 3.408c-.01 0-.536-.523-1.168-1.162L.797 6.061l.002.43.003.43 1.287 1.264c.952.935 1.296 1.259 1.321 1.244.019-.01.132-.13.252-.266zm5.85-7.25c-.001-.365-.015-.305-.027.117-.006.2-.002.304.008.248.01-.052.019-.217.018-.366z"/><path d="M2.42 8.871C.967 7.445.615 7.085.578 6.991c-.023-.06-.033-.251-.038-.7l-.006-.616.063-.05c.054-.043.072-.046.115-.021.029.016.304.29.611.608s.833.858 1.168 1.2l.61.622 1.96-2.25C8.722 1.582 9.804.35 9.817.362c.015.015-.04 1.869-.062 2.037-.014.114-.033.143-.3.449l-2.88 3.339C3.42 9.844 3.436 9.826 3.411 9.826c-.01 0-.457-.43-.992-.955zm-.304-.706L.846 6.908.84 6.521l-.008-.387.875.887a93.49 93.49 0 001.15 1.15l.276.265.386-.444c1.044-1.2 3.776-4.33 4.816-5.518l1.169-1.336.013.204.013.204.005-.232c.002-.128-.005-.23-.016-.225-.03.012-.249.26-3.326 3.788A1557.798 1557.798 0 013.21 8.29l-.098.107L1.955 7.23.797 6.064l.002.428.003.428 1.276 1.252a71.73 71.73 0 001.291 1.251c.008 0-.556-.566-1.253-1.258zm1.45 1.106c.3-.33 5.526-6.397 5.793-6.727a.435.435 0 00.078-.112c-.007 0-.234.258-.504.573-1.4 1.632-5.116 5.94-5.393 6.252-.086.096-.144.17-.13.165a1.15 1.15 0 00.156-.151zm5.918-7.033c-.008-.018-.014-.013-.015.015 0 .025.005.039.013.03.008-.007.008-.028.002-.045zm.025-.438c-.005-.075-.009-.014-.009.136 0 .15.004.21.009.136a2.625 2.625 0 000-.272z"/><path d="M2.491 8.942C1.088 7.567.614 7.084.578 6.992c-.024-.062-.034-.244-.038-.7l-.006-.617.063-.05c.054-.043.072-.046.115-.021.029.016.325.31.658.655l1.169 1.2.562.574 2.28-2.616C8.589 1.734 9.799.353 9.814.353c.015 0-.005.83-.04 1.672l-.018.479-.211.241-3.042 3.526c-3.266 3.787-3.064 3.555-3.09 3.555-.011 0-.426-.398-.922-.884zm-.387-.788L.847 6.908.838 6.52.83 6.13l.84.853c.463.47.981.988 1.152 1.153l.31.3 1.18-1.354c1.7-1.95 3.714-4.258 4.507-5.161l.685-.781.013.168.014.168.004-.199.004-.198-.051.045c-.052.046-1.445 1.635-4.599 5.25a128.687 128.687 0 01-1.775 2.012c-.01 0-.536-.522-1.167-1.16l-1.15-1.16.003.427.003.428 1.264 1.24c.696.682 1.272 1.24 1.28 1.24.008 0-.55-.561-1.242-1.246zm2.058.432A922.302 922.302 0 009.377 2.52c.105-.146.008-.044-.302.319a3020.626 3020.626 0 01-5.44 6.314c-.123.143-.19.228-.146.189.043-.04.346-.38.673-.756zm5.346-6.739c-.005-.049-.009-.009-.009.089 0 .097.004.137.01.088a1.029 1.029 0 000-.177z"/><path d="M2.515 8.966C1.137 7.616.615 7.083.577 6.99c-.025-.062-.034-.233-.038-.7l-.004-.617.063-.05c.053-.042.07-.045.114-.02.028.016.36.346.736.733l1.169 1.2.484.496L5.298 5.51C8.87 1.41 9.802.35 9.815.362c.017.017-.04 1.957-.06 2.073-.013.07-.523.674-2.957 3.495-3.508 4.067-3.36 3.896-3.385 3.896-.01 0-.415-.387-.898-.86zM2.08 8.13L.848 6.908l-.012-.387-.01-.388L1.962 7.27l1.153 1.151c.008.008.37-.393.803-.891a4164.65 4164.65 0 015.063-5.798l.52-.593.015.144.013.145.003-.177.004-.178-.135.142c-.075.079-1.267 1.44-2.65 3.024-3.443 3.945-3.62 4.146-3.64 4.146-.01 0-.534-.522-1.166-1.159L.796 6.067l.003.426.003.426 1.241 1.217c.683.67 1.248 1.217 1.256 1.217.008 0-.54-.55-1.218-1.223zm2.152.373c1.88-2.167 5.105-5.923 5.16-6.008.048-.076-.044.029-1.734 1.992-.855.994-2.119 2.46-2.808 3.257C3.479 9.331 3.43 9.39 3.512 9.318c.03-.026.355-.393.721-.815zm5.275-6.608c-.005-.036-.01-.012-.01.053 0 .064.004.094.01.065a.422.422 0 000-.118z"/><path d="M2.54 8.991c-1.358-1.33-1.926-1.908-1.963-2-.026-.063-.035-.229-.038-.7l-.004-.617.063-.05c.053-.042.07-.045.114-.02.028.016.38.367.783.78l1.169 1.2.437.449 2.114-2.428C9.065 1.185 9.807.343 9.818.377c.014.043-.044 1.948-.064 2.058-.012.071-.496.644-2.802 3.318C3.628 9.607 3.45 9.812 3.42 9.822c-.013.004-.409-.37-.88-.831zm2.06-.913a912.891 912.891 0 004.7-5.47c.164-.21-.358.387-1.722 1.974L4.78 7.83c-.661.766-1.22 1.416-1.24 1.442-.139.178.297-.313 1.059-1.194zm-2.543.03l-1.21-1.2-.013-.39-.013-.39 1.14 1.14c.627.628 1.151 1.14 1.165 1.14.013 0 .147-.14.298-.312l2.078-2.382A4117.37 4117.37 0 018.404 2.39l1.099-1.256.014.123.014.124.002-.154.003-.154-.143.154c-.079.084-1.08 1.227-2.226 2.538-3.716 4.257-4.035 4.62-4.053 4.62-.01 0-.535-.52-1.167-1.157L.797 6.072l.002.423.003.424L2.02 8.112a78.82 78.82 0 001.232 1.194c.008 0-.53-.54-1.195-1.199zm7.45-6.19c-.006-.023-.01-.004-.01.041 0 .046.004.064.01.042a.194.194 0 000-.083z"/><path d="M2.586 9.036C1.243 7.724.614 7.083.574 6.986c-.03-.071-.036-.203-.036-.701v-.613l.061-.049c.052-.04.07-.044.113-.02.044.026.74.731 2.023 2.053l.366.377L5.05 5.794C8.763 1.53 9.807.344 9.818.376a45.37 45.37 0 01-.064 2.076c-.015.071-.033.091-3.827 4.49C3.318 9.965 3.44 9.826 3.414 9.826c-.011 0-.384-.355-.828-.79zm1.322-.16c.78-.893 5.265-6.106 5.39-6.267.163-.208-.262.277-1.262 1.441a2631.157 2631.157 0 01-4.483 5.203c-.026.03-.041.053-.035.053.007 0 .182-.194.39-.43zm-1.875-.792L.847 6.908l-.014-.39-.015-.39L1.936 7.24l1.117 1.11-1.122-1.133A229.446 229.446 0 01.803 6.072a6.725 6.725 0 00-.004.417l.003.429 1.195 1.17a71.208 71.208 0 001.209 1.171c.007 0-.52-.529-1.173-1.175zM5.15 6.116a9148.97 9148.97 0 013.172-3.633l1.18-1.352.015.101.014.101.004-.127c.003-.116 0-.124-.036-.094-.04.032-1.126 1.271-4.417 5.04L3.205 8.3c-.057.064-.09.112-.074.106.016-.005.924-1.036 2.02-2.29zM9.507 1.93c-.007-.016-.012-.003-.012.03 0 .032.005.045.012.029a.091.091 0 000-.06z"/><path d="M2.633 9.084C1.333 7.814.613 7.082.574 6.986c-.03-.071-.036-.203-.036-.701v-.613l.061-.049c.052-.04.07-.044.113-.02.044.026 1.073 1.07 2.07 2.1l.319.33 1.866-2.145C7.866 2.56 9.797.353 9.814.353c.015 0-.006.938-.038 1.716l-.017.429-.425.492C4.614 8.47 3.44 9.826 3.416 9.826c-.013 0-.365-.334-.783-.742zm1.24-.168c.408-.468 1.81-2.093 3.351-3.886 1.925-2.238 2.02-2.349 1.99-2.33a88.86 88.86 0 00-1.18 1.356 9795.997 9795.997 0 01-4.48 5.203l-.05.059.06-.059c.033-.032.172-.187.308-.343zm-1.877-.868l-1.15-1.14-.014-.39-.015-.39L1.83 7.134l1.012 1.004L1.838 7.12A52.419 52.419 0 00.815 6.097c-.01-.002-.017.182-.016.408l.003.412 1.16 1.136a82.14 82.14 0 001.171 1.135c.007 0-.505-.513-1.137-1.14zm1.243.248a846.86 846.86 0 002.57-2.936l3.08-3.527.614-.702.014.09.015.089.003-.1c.002-.056-.007-.101-.02-.101-.013 0-.686.757-1.495 1.683-4.43 5.066-5.224 5.98-4.781 5.504zM9.29 2.621c.024-.026.038-.047.031-.047a.186.186 0 00-.054.047c-.024.026-.038.047-.031.047a.186.186 0 00.054-.047z"/><path d="M2.657 9.107C1.38 7.862.614 7.082.574 6.986c-.03-.071-.036-.203-.036-.701v-.613l.061-.049c.052-.04.07-.044.113-.02.044.026 1.233 1.23 2.117 2.147l.272.282 1.3-1.494C6.094 4.59 8.68 1.626 9.311.908c.43-.488.5-.557.507-.507.013.083-.047 1.968-.065 2.051-.01.045-.264.36-.724.892-1.697 1.97-4.916 5.701-5.24 6.074a5.036 5.036 0 01-.375.408c-.012 0-.353-.323-.758-.719zm.931.134c.03-.037.029-.038-.009-.009a.157.157 0 00-.041.042c0 .02.02.007.05-.033zm.451-.52c1.077-1.234 5.057-5.864 5.04-5.864-.006 0-1.057 1.215-2.336 2.699a4902.353 4902.353 0 01-2.72 3.154c-.215.25-.387.454-.381.454.006 0 .185-.199.397-.442zm-2.118-.744L.846 6.908l-.015-.39-.015-.39.889.887c.488.487.888.88.888.874 0-.007-.404-.416-.898-.91l-.898-.897.002.417.003.417L1.89 7.981a89.939 89.939 0 001.098 1.065c.005 0-.475-.48-1.067-1.069zM5.58 5.62C9.863.713 9.5 1.12 9.518 1.208l.014.078.003-.075c.002-.042-.006-.081-.017-.089-.025-.015-.285.28-3.381 3.826C3.418 8.06 3.084 8.447 3.258 8.266c.07-.072 1.114-1.263 2.322-2.646zm3.58-2.846c.03-.032.05-.059.044-.059a.28.28 0 00-.067.06c-.03.032-.05.058-.044.058a.28.28 0 00.067-.059z"/><path d="M2.68 9.13C1.428 7.91.613 7.082.574 6.987c-.03-.071-.036-.203-.036-.701v-.613l.061-.049c.052-.04.07-.044.113-.02.043.025 1.43 1.43 2.165 2.195l.224.233 1.217-1.398c1.786-2.054 4.245-4.873 4.91-5.63.575-.652.582-.66.59-.578.013.115-.045 1.94-.064 2.027-.016.075.018.035-3.663 4.302-2.553 2.96-2.65 3.072-2.676 3.072-.012 0-.342-.313-.735-.695zm1.962-1.105A1540.563 1540.563 0 008.316 3.76a7.63 7.63 0 00.338-.408c-.006 0-.572.651-1.258 1.447L4.959 7.63c-.655.76-1.218 1.411-1.251 1.447-.034.036-.054.065-.046.065s.449-.502.98-1.116zM1.737 7.8l-.89-.892-.016-.39-.015-.39.83.828c.456.454.829.821.829.814 0-.006-.378-.389-.84-.85l-.838-.838.002.413.002.413.902.891c.496.49.907.891.914.892.006 0-.39-.4-.88-.89zM6.29 4.806l3.071-3.514.142-.164.015.067.015.067.003-.063c.004-.096-.033-.1-.108-.012a1863.401 1863.401 0 00-6.171 7.069c-.119.153.38-.416 3.033-3.45zm2.458-1.553l.07-.077-.077.07c-.072.064-.088.083-.07.083a.59.59 0 00.077-.076zm.129-.148c.03-.032.05-.059.044-.059a.28.28 0 00-.068.06c-.03.032-.05.058-.043.058a.28.28 0 00.067-.059zm.145-.171c.029-.038.028-.039-.01-.01a.161.161 0 00-.04.042c0 .02.019.007.05-.032zm.138-.16c.03-.032.05-.059.044-.059a.28.28 0 00-.067.06c-.03.032-.05.058-.044.058a.28.28 0 00.067-.059z"/><path d="M2.704 9.155C1.477 7.96.614 7.08.574 6.986c-.03-.071-.036-.203-.036-.701v-.613l.061-.049c.052-.04.07-.044.114-.02.028.017.574.565 1.212 1.218A65.295 65.295 0 003.1 8.01a290 290 0 002.368-2.7C8.67 1.637 9.768.384 9.801.363c.029-.018.017.803-.025 1.731l-.018.406-.647.752c-1.274 1.48-5.256 6.094-5.464 6.332a1.98 1.98 0 01-.233.242c-.011 0-.33-.302-.71-.671zm1.035-.085c.023-.026.037-.047.03-.047a.186.186 0 00-.054.047c-.023.026-.037.047-.03.047a.186.186 0 00.054-.047zm.143-.171l.07-.077-.077.07c-.072.064-.088.084-.07.084a.59.59 0 00.077-.077zm.223-.254c.08-.091.141-.166.135-.166-.007 0-.078.075-.159.166-.08.09-.141.165-.134.165.006 0 .077-.074.158-.165zM1.69 7.753l-.845-.845-.014-.39-.015-.39.776.769.777.767-.78-.785a67.809 67.809 0 00-.786-.786 7.44 7.44 0 00-.004.408l.002.407.855.844c.47.464.86.844.866.844.006.001-.368-.379-.832-.843zm4.143-1.11L7.584 4.61a2.48 2.48 0 00.197-.242c-.007 0-.642.73-1.412 1.624l-1.767 2.05a6.365 6.365 0 00-.339.406c.016-.01.722-.822 1.57-1.806zM3.42 8.09c.044-.046.075-.083.068-.083a.515.515 0 00-.092.083c-.044.045-.075.082-.068.082a.515.515 0 00.092-.082zm1.635-1.873l2.942-3.366c.77-.88 1.395-1.6 1.389-1.6-.016 0-.743.828-3.39 3.862a905.596 905.596 0 01-2.442 2.794c-.04.042-.066.076-.057.076.008 0 .71-.794 1.558-1.766zm2.82-1.948l.069-.077-.077.07c-.072.064-.088.083-.07.083a.59.59 0 00.077-.076zm.141-.166l.07-.077-.077.07c-.072.064-.088.084-.07.084a.59.59 0 00.077-.077zm.223-.254c.08-.09.141-.165.135-.165-.007 0-.078.074-.159.165-.08.091-.14.166-.134.166.006 0 .077-.075.158-.166zm.213-.248c.03-.032.05-.059.043-.059a.28.28 0 00-.067.06c-.03.032-.05.058-.044.058a.28.28 0 00.068-.059zm.141-.165c.03-.033.05-.06.044-.06a.28.28 0 00-.067.06c-.03.032-.05.059-.044.059a.28.28 0 00.067-.06zm.142-.166c.03-.032.05-.059.044-.059a.28.28 0 00-.067.06c-.031.032-.05.058-.044.058a.28.28 0 00.067-.059zm.142-.165c.03-.032.05-.059.044-.059a.28.28 0 00-.068.06c-.03.032-.05.058-.043.058a.28.28 0 00.067-.059zm.286-.337c.03-.037.029-.038-.009-.008a.151.151 0 00-.04.04c0 .02.019.008.05-.032zm.293-1.588c.023-.026.037-.047.03-.047a.186.186 0 00-.054.047c-.023.026-.037.047-.03.047a.186.186 0 00.054-.047zm.074-.03c-.006-.016-.012-.003-.012.03 0 .032.006.046.012.03a.091.091 0 000-.06z"/><path d="M2.728 9.178C1.527 8.011.613 7.08.574 6.986c-.03-.071-.036-.203-.036-.701v-.613l.061-.049c.052-.04.07-.044.113-.02.027.017.29.274.582.573l1.166 1.19.634.647.09-.092c.049-.05 1.219-1.388 2.6-2.973C8.743 1.553 9.765.385 9.798.365c.015-.01.024.063.024.205 0 .38-.05 1.823-.067 1.89-.009.035-.298.39-.642.79a4745.884 4745.884 0 01-5.016 5.814c-.363.42-.67.762-.681.762-.012 0-.322-.292-.688-.648zm1.002-.102c.03-.038.029-.038-.009-.009-.023.018-.041.036-.041.041 0 .02.02.007.05-.032zm.139-.16c.03-.032.05-.059.043-.059a.28.28 0 00-.067.06c-.03.032-.05.059-.044.059a.28.28 0 00.068-.06zm.178-.206l.07-.077-.077.07c-.072.064-.088.084-.07.084a.59.59 0 00.077-.077zm.142-.166l.07-.076-.077.069a.59.59 0 00-.077.077c0 .018.02.002.084-.07zm-2.536-.827l-.809-.81-.014-.389-.014-.39.664.662c.365.364.664.656.664.65 0-.007-.303-.315-.673-.685l-.674-.673.002.413.003.413.819.808c.45.445.824.809.83.81.007 0-.352-.364-.798-.809zm2.688.656c.03-.032.05-.059.044-.059a.28.28 0 00-.067.06c-.031.032-.05.058-.044.058a.28.28 0 00.067-.059zm.142-.165c.044-.046.075-.083.068-.083a.515.515 0 00-.092.083c-.044.045-.075.082-.068.082a.515.515 0 00.092-.082zM3.42 8.09c.03-.033.05-.06.044-.06a.28.28 0 00-.068.06c-.03.032-.05.059-.043.059a.28.28 0 00.067-.06zm1.218-.065l.07-.077-.077.07c-.072.064-.088.083-.07.083a.59.59 0 00.077-.076zm-1.063-.118l.07-.077-.078.07a.59.59 0 00-.076.076c0 .018.02.002.084-.07zm1.357-.219c.119-.136.21-.248.204-.248-.007 0-.11.112-.228.248-.119.136-.21.248-.204.248.006 0 .109-.112.228-.248zm-.777-.443c.275-.315.533-.607.572-.65.04-.042.066-.076.058-.076s-.271.292-.584.65c-.313.357-.565.649-.558.649.006 0 .237-.258.512-.573zm1.296-.16a4.98 4.98 0 00.275-.33c-.007 0-.14.149-.298.33-.157.183-.28.331-.274.331.006 0 .14-.148.297-.33zm.591-.684a5.3 5.3 0 00.274-.331c-.006 0-.14.149-.298.33a5.3 5.3 0 00-.274.331c.007 0 .14-.149.298-.33zm-.576-.656c.36-.413.724-.827.808-.921.083-.095.146-.172.139-.172-.007 0-.308.338-.669.75-.36.413-.724.828-.808.922a1.188 1.188 0 00-.139.171c.007 0 .308-.337.669-.75zm1.167-.03c.157-.181.28-.33.274-.33-.007 0-.14.149-.298.33a5.3 5.3 0 00-.274.331c.006 0 .14-.149.298-.33zM7 5.285l.07-.077-.077.069c-.072.065-.088.084-.07.084A.59.59 0 007 5.284zm.294-.337c.119-.137.21-.248.204-.248-.006 0-.109.111-.228.248-.118.136-.21.248-.204.248.007 0 .11-.112.228-.248zm.297-.349l.07-.077-.078.07c-.071.065-.087.084-.069.084a.59.59 0 00.077-.077zm-.247-1.004L8.4 2.39c.083-.094.146-.17.138-.17-.008 0-.42.464-.917 1.033L6.567 4.458a1.181 1.181 0 00-.14.17c.007 0 .42-.464.917-1.033zm.375.857c.03-.033.05-.06.044-.06a.28.28 0 00-.067.06c-.03.032-.05.059-.044.059a.28.28 0 00.067-.06zm.155-.183l.07-.077-.077.07c-.072.064-.088.083-.07.083a.59.59 0 00.077-.076zm.142-.166l.07-.077-.077.07c-.072.064-.088.084-.07.084a.59.59 0 00.077-.077zm.152-.171c.03-.033.05-.06.044-.06a.28.28 0 00-.067.06c-.031.032-.05.059-.044.059a.28.28 0 00.067-.06zm.142-.165c.03-.033.05-.06.044-.06a.28.28 0 00-.068.06c-.03.032-.05.059-.043.059a.28.28 0 00.067-.06zm.142-.166c.03-.032.05-.059.043-.059a.28.28 0 00-.067.06c-.03.032-.05.058-.044.058a.28.28 0 00.068-.059zm.144-.171c.03-.038.029-.038-.009-.009-.022.018-.04.036-.04.041 0 .02.019.007.05-.032zm.15-.171c.024-.026.038-.048.032-.048a.186.186 0 00-.055.048c-.023.026-.037.047-.03.047a.186.186 0 00.054-.047zm.134-.16c.03-.037.028-.038-.009-.009-.04.031-.052.05-.032.05a.151.151 0 00.04-.04zm.283-.33c.03-.038.029-.039-.009-.01-.022.018-.04.037-.04.042 0 .02.019.007.05-.033zm-.522-.656c.044-.046.074-.083.068-.083a.515.515 0 00-.092.083c-.044.045-.075.083-.068.083a.515.515 0 00.092-.083zm.165-.19c.044-.045.075-.082.068-.082a.515.515 0 00-.092.083c-.044.045-.074.083-.068.083a.515.515 0 00.092-.083zm.165-.188a.338.338 0 00.069-.083.515.515 0 00-.092.083c-.044.045-.075.083-.069.083a.515.515 0 00.092-.083zm.166-.19c.044-.045.075-.082.068-.082a.515.515 0 00-.092.083c-.044.045-.075.083-.068.083a.515.515 0 00.092-.083zm.178-.206l.07-.077-.077.07c-.072.064-.088.084-.07.084a.59.59 0 00.077-.077z"/><path d="M2.751 9.202C1.578 8.062.613 7.08.574 6.986c-.03-.071-.036-.204-.036-.71v-.621l.065-.039c.052-.03.075-.033.113-.01.026.014.568.558 1.204 1.208.637.65 1.168 1.181 1.18 1.181.013 0 .793-.882 1.734-1.96C7.924 2.49 9.743.412 9.783.38c.036-.03.039-.014.04.2 0 .383-.052 1.811-.068 1.88-.016.065-.412.528-4.019 4.708C3.5 9.761 3.442 9.826 3.414 9.826c-.011 0-.31-.28-.663-.624zm1.13-.297c.023-.026.037-.048.03-.048a.186.186 0 00-.054.048c-.024.026-.038.047-.031.047a.186.186 0 00.055-.047zm.153-.178c.03-.032.05-.059.044-.059a.28.28 0 00-.068.06c-.03.032-.05.059-.043.059a.28.28 0 00.067-.06zm.142-.165c.03-.032.05-.059.043-.059a.28.28 0 00-.067.06c-.03.032-.05.058-.043.058a.28.28 0 00.067-.059zm-2.559-.881l-.775-.775-.013-.389-.013-.388.605.602c.333.331.605.597.605.59 0-.006-.277-.288-.615-.625l-.614-.614.003.413.002.413.783.773c.431.425.789.773.795.774.007 0-.337-.348-.763-.774zm2.724.692c.03-.032.05-.059.044-.059a.28.28 0 00-.067.06c-.031.032-.05.058-.044.058a.28.28 0 00.067-.059zm.142-.165c.03-.033.05-.06.044-.06a.28.28 0 00-.068.06c-.03.032-.05.059-.043.059a.28.28 0 00.067-.06zM3.42 8.09c.03-.033.05-.06.044-.06a.28.28 0 00-.068.06c-.03.032-.05.059-.043.059a.28.28 0 00.067-.06zm1.205-.048c.03-.032.05-.059.043-.059a.28.28 0 00-.067.06c-.03.032-.05.058-.044.058a.28.28 0 00.068-.059zm-1.052-.13c.024-.026.038-.047.031-.047a.186.186 0 00-.054.047c-.024.026-.038.048-.031.048a.186.186 0 00.054-.048zm1.217-.059c.03-.032.05-.059.044-.059a.28.28 0 00-.068.06c-.03.032-.05.058-.043.058a.28.28 0 00.067-.059zm-1.04-.141c.031-.033.05-.06.044-.06a.28.28 0 00-.067.06c-.03.032-.05.059-.044.059a.28.28 0 00.068-.06zm1.182-.024c.044-.045.075-.083.068-.083a.515.515 0 00-.092.083c-.044.045-.075.083-.068.083a.515.515 0 00.092-.083zm-1.026-.16l.069-.076-.077.07c-.071.064-.087.083-.07.083a.59.59 0 00.078-.076zm1.167-.005c.031-.033.05-.06.044-.06a.28.28 0 00-.067.06c-.03.032-.05.059-.044.059a.28.28 0 00.067-.06zM4.071 7.34l.07-.077-.077.07c-.072.064-.088.083-.07.083a.59.59 0 00.077-.076zm1.168-.006c.03-.033.05-.06.044-.06a.28.28 0 00-.068.06c-.03.032-.05.059-.043.059a.28.28 0 00.067-.06zm-1.016-.166c.044-.045.075-.082.068-.082a.515.515 0 00-.092.082c-.044.046-.074.083-.068.083a.515.515 0 00.092-.083zm1.228-.082c.081-.091.142-.166.135-.166-.006 0-.078.075-.158.166-.08.09-.141.165-.135.165.007 0 .078-.074.158-.165zm-1.063-.107c.044-.045.075-.082.069-.082a.515.515 0 00-.092.082.338.338 0 00-.069.083.515.515 0 00.092-.083zm1.276-.141c.03-.033.05-.06.044-.06a.28.28 0 00-.068.06c-.03.032-.05.059-.043.059a.28.28 0 00.067-.06zm-1.11-.048c.044-.045.075-.082.068-.082a.515.515 0 00-.092.082c-.044.046-.075.083-.068.083a.515.515 0 00.092-.083zm1.275-.141c.031-.033.05-.06.044-.06a.28.28 0 00-.067.06c-.03.032-.05.059-.044.059a.28.28 0 00.067-.06zM4.72 6.6c.044-.045.075-.082.068-.082a.515.515 0 00-.091.082c-.045.046-.075.083-.069.083A.515.515 0 004.72 6.6zm1.323-.2c.08-.091.141-.166.135-.166-.007 0-.078.075-.159.166-.08.09-.14.165-.134.165.006 0 .077-.075.158-.165zm-1.144-.006l.07-.077-.078.07c-.071.064-.087.083-.069.083a.59.59 0 00.077-.076zm.152-.172c.044-.045.075-.082.068-.082a.515.515 0 00-.092.082c-.044.046-.075.083-.068.083a.515.515 0 00.092-.083zm1.205-.07c.03-.033.05-.06.043-.06a.28.28 0 00-.067.06c-.03.032-.05.059-.044.059a.28.28 0 00.068-.06zm-.79-.408l.478-.543c.084-.095.146-.172.14-.172-.007 0-.16.168-.339.372l-.477.544a1.223 1.223 0 00-.14.171c.007 0 .16-.167.339-.372zm.955.219c.03-.033.05-.06.044-.06a.28.28 0 00-.068.06c-.03.032-.05.059-.043.059a.28.28 0 00.067-.06zm.213-.249c.08-.09.14-.165.134-.165-.006 0-.077.075-.158.165-.08.091-.141.166-.135.166.007 0 .078-.075.159-.166zm.212-.248c.03-.032.05-.059.044-.059a.28.28 0 00-.067.06c-.03.032-.05.058-.044.058a.28.28 0 00.067-.059zM7 5.284l.07-.076-.077.069c-.072.065-.088.084-.07.084A.59.59 0 007 5.284zm.152-.17c.03-.033.05-.06.044-.06a.28.28 0 00-.067.06c-.03.032-.05.058-.044.058a.28.28 0 00.067-.059zm.142-.166c.044-.046.075-.083.068-.083a.515.515 0 00-.092.083c-.044.045-.074.082-.068.082a.515.515 0 00.092-.082zm-1.11-.024c.044-.045.075-.083.068-.083a.515.515 0 00-.092.083c-.044.046-.075.083-.068.083a.515.515 0 00.092-.083zm1.252-.142c.03-.032.05-.059.044-.059a.28.28 0 00-.068.06c-.03.032-.05.058-.043.058a.28.28 0 00.067-.059zm-1.097-.041l.07-.077-.078.07c-.071.064-.087.084-.069.084a.59.59 0 00.077-.077zm1.239-.124c.03-.033.05-.06.043-.06a.28.28 0 00-.067.06c-.03.032-.05.059-.044.059a.28.28 0 00.068-.059zm-1.063-.07c.044-.046.074-.084.068-.084a.515.515 0 00-.092.083c-.044.046-.075.083-.068.083a.515.515 0 00.092-.083zM7.73 4.44c.024-.026.038-.047.031-.047a.186.186 0 00-.054.047c-.024.026-.038.047-.031.047a.186.186 0 00.054-.047zm-1.05-.083c.044-.045.075-.083.068-.083a.515.515 0 00-.092.083c-.044.046-.075.083-.068.083a.515.515 0 00.092-.083zm1.181-.07c.03-.033.05-.06.044-.06a.28.28 0 00-.068.06c-.03.032-.05.058-.043.058a.28.28 0 00.067-.059zm-.848-.314l.395-.449c.084-.094.146-.17.14-.17-.007 0-.122.124-.256.277l-.395.449a1.247 1.247 0 00-.14.17c.007 0 .122-.124.256-.277zm.99.148c.03-.033.05-.06.043-.06a.28.28 0 00-.067.06c-.03.032-.05.059-.043.059a.28.28 0 00.067-.06zm.165-.19c.03-.032.05-.058.044-.058a.28.28 0 00-.067.059c-.031.032-.05.059-.044.059a.28.28 0 00.067-.06zm.142-.164c.03-.033.05-.06.044-.06a.28.28 0 00-.068.06c-.03.032-.05.059-.043.059a.28.28 0 00.067-.06zm.145-.172c.029-.037.028-.038-.01-.009-.022.018-.04.037-.04.042 0 .02.019.007.05-.033zm.141-.165c.03-.038.029-.038-.009-.009-.022.018-.04.036-.04.041 0 .02.019.007.05-.032zm-.948-.183c.045-.046.075-.083.069-.083a.515.515 0 00-.092.083c-.044.045-.075.082-.068.082a.515.515 0 00.091-.082zm1.09.018c.03-.038.029-.039-.009-.01-.023.018-.041.037-.041.042 0 .02.02.007.05-.032zm-.924-.207c.044-.046.075-.083.068-.083a.515.515 0 00-.092.083c-.044.045-.075.082-.068.082a.515.515 0 00.092-.082zm1.066.041c.03-.037.028-.038-.009-.009-.04.031-.052.05-.032.05a.151.151 0 00.04-.04zm-.9-.23a.346.346 0 00.068-.083.515.515 0 00-.092.083c-.045.045-.075.083-.069.083a.515.515 0 00.092-.083zm.165-.19c.044-.045.074-.082.068-.082a.515.515 0 00-.092.083c-.044.045-.075.083-.068.083a.515.515 0 00.092-.083zm.165-.188c.044-.046.075-.083.068-.083a.515.515 0 00-.092.083c-.044.045-.075.083-.068.083a.515.515 0 00.092-.083zm.155-.183l.07-.077-.077.07a.59.59 0 00-.077.076c0 .018.02.002.084-.07zm.176-.195c.044-.046.074-.083.068-.083a.515.515 0 00-.092.083c-.044.045-.075.083-.068.083a.515.515 0 00.092-.083zm.165-.19c.044-.045.075-.082.068-.082a.515.515 0 00-.092.083c-.044.045-.074.083-.068.083a.515.515 0 00.092-.083zm.165-.188a.338.338 0 00.069-.083.515.515 0 00-.092.083c-.044.045-.075.083-.069.083a.515.515 0 00.092-.083zm.179-.207l.07-.077-.077.07c-.072.064-.088.084-.07.084a.59.59 0 00.077-.077zm.152-.171c.03-.033.05-.06.044-.06a.28.28 0 00-.068.06c-.03.032-.05.059-.043.059a.28.28 0 00.067-.06z"/><path d="M2.775 9.225C1.631 8.115.613 7.08.575 6.986c-.03-.071-.037-.204-.037-.71v-.621l.065-.039c.052-.03.075-.033.112-.01.026.014.572.561 1.213 1.214.642.653 1.17 1.187 1.174 1.187.009 0 .797-.901 4.205-4.807A900.594 900.594 0 019.465.73L9.81.342l.008.13c.011.174-.045 1.927-.064 1.996-.008.03-.164.228-.346.44a2825.885 2825.885 0 01-5.832 6.758.982.982 0 01-.162.16c-.01 0-.298-.27-.639-.6zm1.097-.314c.03-.038.028-.039-.01-.01-.039.031-.051.05-.032.05.005 0 .024-.018.042-.04zm.165-.19c.03-.037.029-.038-.009-.008-.023.017-.041.036-.041.041 0 .02.02.007.05-.032zm.15-.17c.024-.027.038-.048.032-.048a.186.186 0 00-.055.047c-.024.026-.037.048-.031.048a.186.186 0 00.055-.048zm.157-.184c.03-.037.029-.038-.009-.009a.157.157 0 00-.041.042c0 .02.02.007.05-.033zm-2.761-.72l-.738-.739v-.101c0-.062-.01-.096-.024-.088-.013.008-.023.053-.023.1 0 .079.044.127.75.824.412.407.755.74.761.74.007.001-.32-.33-.726-.736zm2.9.56c.03-.032.05-.058.044-.058a.28.28 0 00-.068.059c-.03.032-.05.059-.043.059a.28.28 0 00.067-.06zm-1.06-.123c.03-.038.028-.039-.01-.01a.161.161 0 00-.04.042c0 .02.019.007.05-.032zm1.202-.042c.03-.032.05-.059.043-.059a.28.28 0 00-.067.06c-.03.032-.05.058-.044.058a.28.28 0 00.068-.059zm-1.052-.13c.024-.026.038-.047.031-.047a.186.186 0 00-.054.047c-.024.026-.038.048-.031.048a.186.186 0 00.054-.048zm1.217-.059c.03-.032.05-.059.044-.059a.28.28 0 00-.068.06c-.03.032-.05.058-.043.058a.28.28 0 00.067-.059zm-1.051-.13c.023-.026.037-.047.03-.047a.186.186 0 00-.054.047c-.023.026-.037.048-.03.048a.186.186 0 00.054-.048zm1.193-.035c.03-.032.05-.059.043-.059a.28.28 0 00-.067.059c-.03.033-.05.06-.044.06a.28.28 0 00.068-.06zm-1.04-.142c.03-.032.05-.059.044-.059a.28.28 0 00-.067.06c-.03.032-.05.058-.044.058a.28.28 0 00.067-.059zm1.181-.023c.031-.033.05-.06.044-.06a.28.28 0 00-.067.06c-.03.032-.05.059-.044.059a.28.28 0 00.067-.06zm-1.015-.166c.03-.032.05-.059.043-.059a.28.28 0 00-.067.06c-.03.032-.05.058-.044.058a.28.28 0 00.068-.059zm1.18-.023c.031-.033.051-.06.045-.06a.28.28 0 00-.068.06c-.03.032-.05.059-.043.059a.28.28 0 00.067-.06zM1.933 7.22c0-.003-.256-.26-.567-.572l-.567-.567.004.307.005.307.013-.278.013-.278.543.544c.505.505.556.554.556.537zm2.304-.07l.07-.077-.077.07a.59.59 0 00-.077.076c0 .018.02.002.084-.07zm1.145.017c.03-.032.05-.059.043-.059a.28.28 0 00-.067.06c-.03.032-.05.058-.044.058a.28.28 0 00.068-.059zm.141-.165c.03-.033.05-.06.044-.06a.28.28 0 00-.067.06c-.03.032-.05.059-.044.059a.28.28 0 00.067-.06zm-1.134-.024c.03-.032.05-.059.044-.059a.28.28 0 00-.067.06c-.03.032-.05.058-.044.058a.28.28 0 00.067-.059zm1.276-.141c.03-.033.05-.06.044-.06a.28.28 0 00-.068.06c-.03.032-.05.059-.043.059a.28.28 0 00.067-.06zm-1.097-.065l.07-.077-.077.07a.59.59 0 00-.077.076c0 .018.02.002.084-.07zm1.262-.124c.031-.033.05-.06.044-.06a.28.28 0 00-.067.06c-.03.032-.05.059-.044.059a.28.28 0 00.067-.06zM4.72 6.6c.03-.032.05-.059.044-.059a.28.28 0 00-.067.06c-.031.032-.05.058-.044.058A.28.28 0 004.72 6.6zm1.252-.118c.03-.032.05-.059.044-.059a.28.28 0 00-.067.06c-.031.032-.05.058-.044.058a.28.28 0 00.067-.059zm-1.086-.07c.03-.033.05-.06.043-.06a.28.28 0 00-.067.06c-.03.032-.05.058-.044.058a.28.28 0 00.068-.059zm1.228-.095c.03-.033.05-.06.044-.06a.28.28 0 00-.068.06c-.03.032-.05.059-.043.059a.28.28 0 00.067-.06zM5.04 6.229l.069-.077-.077.07a.59.59 0 00-.077.077c0 .018.02.002.085-.07zm1.215-.077c.03-.032.05-.059.043-.059a.28.28 0 00-.067.06c-.03.032-.05.059-.044.059a.28.28 0 00.068-.06zm-1.05-.112l.07-.076-.077.069c-.072.065-.088.084-.07.084a.59.59 0 00.077-.077zm1.215-.076c.03-.033.05-.06.044-.06a.28.28 0 00-.068.06c-.03.032-.05.059-.043.059a.28.28 0 00.067-.06zM5.37 5.85l.07-.076-.077.069c-.072.065-.088.084-.07.084a.59.59 0 00.077-.077zm1.192-.053c.03-.032.05-.059.043-.059a.28.28 0 00-.067.06c-.03.032-.05.058-.044.058a.28.28 0 00.068-.059zm-1.026-.136l.069-.076-.077.069c-.071.065-.087.084-.07.084a.59.59 0 00.078-.077zm1.168-.03c.03-.032.05-.058.043-.058a.28.28 0 00-.067.059c-.03.032-.05.059-.044.059a.28.28 0 00.068-.06zM5.7 5.474l.07-.076-.077.069c-.072.065-.088.084-.07.084a.59.59 0 00.077-.077zm1.144-.006c.03-.032.05-.059.044-.059a.28.28 0 00-.067.06c-.03.032-.05.058-.044.058a.28.28 0 00.067-.059zm-.992-.165c.044-.045.075-.083.068-.083a.515.515 0 00-.092.083c-.044.046-.074.083-.068.083a.515.515 0 00.092-.083zm1.134 0c.03-.032.05-.059.044-.059a.28.28 0 00-.068.059c-.03.033-.05.06-.043.06a.28.28 0 00.067-.06zm-.969-.189c.03-.032.05-.059.044-.059a.28.28 0 00-.067.06c-.03.032-.05.058-.044.058a.28.28 0 00.067-.059zm1.134 0c.03-.032.05-.059.044-.059a.28.28 0 00-.067.06c-.03.032-.05.058-.044.058a.28.28 0 00.067-.059zm.142-.165c.03-.033.05-.06.044-.06a.28.28 0 00-.068.06c-.03.032-.05.059-.043.059a.28.28 0 00.067-.06zm-1.097-.042l.07-.076-.077.069c-.072.065-.088.084-.07.084a.59.59 0 00.077-.077zm1.239-.124c.03-.032.05-.059.044-.059a.28.28 0 00-.068.06c-.03.032-.05.058-.043.058a.28.28 0 00.067-.059zm-1.087-.047c.03-.032.05-.059.044-.059a.28.28 0 00-.067.06c-.031.032-.05.058-.044.058a.28.28 0 00.067-.059zm1.24-.13c.024-.026.038-.047.031-.047a.186.186 0 00-.054.047c-.024.026-.038.047-.031.047a.186.186 0 00.054-.047zm-1.074-.059c.03-.032.05-.059.043-.059a.28.28 0 00-.067.06c-.03.032-.05.058-.044.058a.28.28 0 00.068-.059zm1.207-.1c.03-.038.029-.039-.009-.01-.039.032-.051.051-.032.051.005 0 .024-.019.041-.041zM6.67 4.363l.069-.077-.077.07c-.071.064-.087.084-.07.084a.59.59 0 00.078-.077zm1.203-.089c.023-.026.037-.047.03-.047a.186.186 0 00-.054.047c-.023.026-.037.048-.03.048a.186.186 0 00.054-.048zm-1.038-.1l.07-.077-.077.07c-.072.064-.088.084-.07.084a.59.59 0 00.077-.077zm1.18-.065c.023-.026.037-.047.03-.047a.186.186 0 00-.054.047c-.024.026-.037.047-.031.047a.186.186 0 00.055-.047zM7 3.985l.07-.077-.077.07c-.072.064-.088.084-.07.084A.59.59 0 007 3.985zm1.171-.059c.03-.037.029-.038-.009-.009-.04.03-.052.05-.032.05.005 0 .023-.018.041-.041zm-1.005-.13l.069-.077-.077.07c-.071.064-.087.084-.07.084a.59.59 0 00.078-.077zm1.147-.035c.03-.038.028-.039-.009-.01-.04.032-.052.051-.032.051a.163.163 0 00.04-.041zm-.982-.154l.07-.077-.077.07c-.072.064-.088.084-.07.084a.59.59 0 00.077-.077zm1.124-.012c.029-.037.028-.038-.01-.009-.022.018-.04.037-.04.042 0 .02.019.007.05-.033zm-.959-.177l.07-.077-.077.07c-.072.064-.088.084-.07.084a.59.59 0 00.077-.077zm.166-.189l.07-.077-.078.07c-.071.064-.087.084-.069.084a.59.59 0 00.077-.077zm1.076.036c.03-.038.029-.039-.009-.01-.023.018-.041.037-.041.042 0 .02.02.007.05-.032zm-.91-.225l.068-.077-.076.07c-.072.064-.088.084-.07.084a.59.59 0 00.077-.077zm.164-.189l.07-.077-.077.07c-.071.064-.088.084-.07.084a.59.59 0 00.077-.077zm.166-.189l.07-.077-.078.07c-.071.064-.087.084-.069.084a.59.59 0 00.077-.077zm.152-.171c.03-.033.05-.06.044-.06a.28.28 0 00-.068.06c-.03.032-.05.059-.043.059a.28.28 0 00.067-.06zm.155-.183l.07-.077-.077.07a.59.59 0 00-.077.076c0 .018.02.002.084-.07zm.176-.195c.03-.033.05-.06.043-.06a.28.28 0 00-.067.06c-.03.032-.05.059-.044.059a.28.28 0 00.068-.06zm.165-.19c.03-.032.05-.058.044-.058a.28.28 0 00-.068.059c-.03.032-.05.059-.043.059a.28.28 0 00.067-.06zm.165-.188c.03-.033.05-.06.044-.06a.28.28 0 00-.067.06c-.03.032-.05.059-.044.059a.28.28 0 00.067-.06zm.166-.19c.03-.032.05-.058.043-.058a.28.28 0 00-.067.059c-.03.032-.05.059-.044.059a.28.28 0 00.068-.06zm.168-.194c.03-.037.029-.038-.009-.009-.04.031-.052.05-.032.05.005 0 .023-.018.041-.041z"/><path d="M2.799 9.25C1.685 8.17.613 7.08.574 6.985c-.03-.071-.036-.204-.036-.71v-.621l.065-.039c.052-.03.075-.033.112-.01.026.014.574.562 1.216 1.217l1.17 1.19.091-.104c.051-.056.997-1.14 2.103-2.406C8.453 1.883 9.74.415 9.782.38c.037-.03.04-.012.04.236 0 .408-.05 1.772-.067 1.845-.016.066-.192.272-3.416 4.01C3.727 9.5 3.442 9.826 3.417 9.826c-.013 0-.29-.26-.618-.577zm1.073-.34c.03-.037.028-.038-.01-.008-.039.03-.051.05-.032.05a.157.157 0 00.042-.041zm.165-.188c.03-.038.029-.039-.009-.01-.023.018-.041.037-.041.042 0 .02.02.007.05-.032zm.142-.166c.03-.037.028-.038-.01-.009-.022.018-.04.037-.04.042 0 .02.019.007.05-.033zm.165-.189c.03-.037.029-.038-.009-.009a.157.157 0 00-.041.042c0 .02.02.007.05-.033zm-2.796-.756c-.684-.684-.703-.705-.703-.796 0-.068-.007-.086-.026-.067-.016.016-.02.056-.01.102.014.06.176.233.718.77.385.38.705.693.712.693.006 0-.305-.315-.691-.702zm2.938.59c.03-.037.028-.037-.009-.008-.04.03-.052.05-.032.05a.145.145 0 00.04-.041zm-1.063-.117c.03-.038.028-.039-.01-.01a.161.161 0 00-.04.042c0 .02.019.007.05-.032zm1.205-.048c.029-.037.028-.038-.01-.008a.151.151 0 00-.04.04c0 .02.019.008.05-.032zm.165-.189c.03-.037.029-.038-.009-.008a.145.145 0 00-.041.04c0 .02.02.008.05-.032zm-1.04-.141c.03-.038.03-.039-.008-.01-.04.032-.052.051-.033.051a.157.157 0 00.042-.041zm1.179-.018c.03-.032.05-.059.043-.059a.28.28 0 00-.067.059c-.03.033-.05.06-.044.06a.28.28 0 00.068-.06zm-1.028-.154c.024-.026.038-.047.031-.047a.186.186 0 00-.054.047c-.024.026-.038.048-.031.048a.186.186 0 00.054-.048zm1.181-.023c.024-.026.038-.047.031-.047a.186.186 0 00-.054.047c-.024.026-.038.047-.031.047a.186.186 0 00.054-.047zm-1.027-.154c.03-.032.05-.059.043-.059a.28.28 0 00-.067.06c-.03.032-.05.058-.044.058a.28.28 0 00.068-.059zm1.184-.03c.03-.037.028-.038-.01-.008-.022.018-.04.036-.04.041 0 .02.019.007.05-.032zm-1.019-.159c.03-.032.05-.059.044-.059a.28.28 0 00-.068.06c-.03.032-.05.058-.043.058a.28.28 0 00.067-.059zm1.158 0c.03-.032.05-.059.043-.059a.28.28 0 00-.067.06c-.03.032-.05.058-.044.058a.28.28 0 00.068-.059zm-3.497.006c0-.003-.244-.25-.543-.549l-.543-.543.004.26.005.26.013-.231.013-.231.52.52c.483.484.531.53.531.514zm3.638-.171c.03-.033.05-.06.044-.06a.28.28 0 00-.067.06c-.03.032-.05.059-.044.059a.28.28 0 00.067-.06zm-1.134-.024c.03-.032.05-.059.044-.059a.28.28 0 00-.067.06c-.03.032-.05.058-.044.058a.28.28 0 00.067-.059zm1.28-.147c.028-.038.028-.039-.01-.01-.023.019-.041.037-.041.042 0 .02.02.007.05-.032zM4.553 6.79c.03-.032.05-.059.043-.059a.28.28 0 00-.067.06c-.03.032-.05.058-.044.058a.28.28 0 00.068-.059zm1.278-.147c.03-.038.029-.039-.008-.01-.04.032-.052.051-.033.051.005 0 .024-.019.041-.041zM4.72 6.6c.03-.032.05-.059.044-.059a.28.28 0 00-.067.06c-.031.032-.05.058-.044.058A.28.28 0 004.72 6.6zm1.252-.118c.03-.032.05-.059.044-.059a.28.28 0 00-.067.06c-.031.032-.05.058-.044.058a.28.28 0 00.067-.059zm-1.098-.059c.023-.026.037-.047.03-.047a.186.186 0 00-.054.047c-.023.026-.037.047-.03.047a.186.186 0 00.054-.047zm1.24-.106c.03-.033.05-.06.044-.06a.28.28 0 00-.068.06c-.03.032-.05.059-.043.059a.28.28 0 00.067-.06zm-1.087-.071c.03-.032.05-.06.044-.06a.28.28 0 00-.067.06c-.03.032-.05.059-.044.059a.28.28 0 00.067-.059zm1.232-.1c.03-.038.028-.039-.01-.01a.161.161 0 00-.04.042c0 .02.019.007.05-.032zm-1.055-.1c.024-.027.038-.048.031-.048a.186.186 0 00-.054.047c-.024.026-.038.047-.031.047a.186.186 0 00.054-.047zm1.22-.09c.03-.037.029-.038-.009-.008-.023.018-.041.036-.041.041 0 .02.02.007.05-.032zM5.357 5.87c.03-.032.05-.059.044-.059a.28.28 0 00-.068.059c-.03.032-.05.06-.043.06a.28.28 0 00.067-.06zm1.205-.07c.03-.033.05-.06.043-.06a.28.28 0 00-.067.06c-.03.032-.05.058-.044.058a.28.28 0 00.068-.059zm-1.04-.119c.03-.032.05-.059.044-.059a.28.28 0 00-.067.059c-.03.033-.05.06-.044.06a.28.28 0 00.067-.06zm1.182-.047c.03-.033.05-.06.043-.06a.28.28 0 00-.067.06c-.03.032-.05.059-.044.059a.28.28 0 00.068-.06zM5.688 5.49c.03-.032.05-.059.043-.059a.28.28 0 00-.067.059c-.03.033-.05.06-.044.06a.28.28 0 00.068-.06zm1.16-.03c.03-.037.029-.038-.009-.008-.039.03-.052.05-.032.05.005 0 .023-.019.041-.041zm-.982-.177l.07-.076-.077.069c-.072.065-.088.084-.07.084a.59.59 0 00.077-.077zM7 5.29c.023-.026.037-.047.03-.047a.186.186 0 00-.054.047c-.023.026-.037.047-.03.047A.186.186 0 007 5.29zm-.98-.177c.03-.032.05-.059.043-.059a.28.28 0 00-.067.06c-.03.032-.05.058-.044.058a.28.28 0 00.067-.059zm1.136-.006c.03-.037.029-.038-.009-.009-.039.031-.051.05-.032.05.005 0 .024-.018.041-.04zm.14-.16c.03-.032.05-.058.043-.058a.28.28 0 00-.068.059c-.03.032-.05.059-.043.059a.28.28 0 00.067-.06zm-1.111-.023c.03-.032.05-.059.043-.059a.28.28 0 00-.067.06c-.03.032-.05.058-.044.058a.28.28 0 00.068-.059zm1.255-.148c.03-.037.028-.038-.01-.008s-.05.05-.031.05a.156.156 0 00.04-.042zm-1.102-.03c.024-.025.038-.046.031-.046a.186.186 0 00-.054.047c-.024.026-.038.047-.031.047a.186.186 0 00.054-.047zm1.244-.135c.029-.037.028-.038-.01-.009-.039.031-.051.05-.032.05.005 0 .024-.018.042-.04zm-1.066-.065c.03-.032.05-.059.043-.059a.28.28 0 00-.067.06c-.03.032-.05.058-.044.058a.28.28 0 00.068-.059zm1.207-.1c.03-.038.029-.039-.009-.01-.039.032-.051.051-.032.051.005 0 .024-.019.041-.041zm-1.054-.077c.024-.026.038-.047.031-.047a.186.186 0 00-.055.047c-.023.026-.037.047-.03.047a.186.186 0 00.054-.047zm1.196-.089c.03-.037.029-.038-.009-.009-.04.031-.052.05-.032.05.005 0 .023-.018.041-.04zm-1.03-.1c.023-.026.037-.047.03-.047a.186.186 0 00-.054.047c-.024.026-.038.047-.031.047a.186.186 0 00.054-.047zm1.172-.065c.03-.038.028-.038-.01-.009-.038.03-.051.05-.032.05.005 0 .024-.018.042-.041zm-1.019-.112c.03-.033.05-.06.044-.06a.28.28 0 00-.068.06c-.03.032-.05.059-.043.059a.28.28 0 00.067-.06zm1.184-.077c.03-.037.029-.038-.009-.009-.04.03-.052.05-.032.05.005 0 .023-.018.041-.041zm-1.019-.112c.03-.033.05-.06.044-.06a.28.28 0 00-.067.06c-.03.032-.05.059-.044.059a.28.28 0 00.067-.06zm1.16-.053c.03-.038.03-.039-.008-.01-.04.032-.052.051-.032.051a.163.163 0 00.04-.041zm-.994-.136c.03-.033.05-.06.043-.06a.28.28 0 00-.067.06c-.03.032-.05.059-.044.059a.28.28 0 00.068-.06zm.165-.19c.03-.032.05-.058.044-.058a.28.28 0 00-.068.059c-.03.032-.05.059-.043.059a.28.28 0 00.067-.06zm.165-.188c.031-.033.05-.06.044-.06a.28.28 0 00-.067.06c-.03.032-.05.059-.044.059a.28.28 0 00.067-.06zm.166-.19c.03-.032.05-.058.043-.058a.28.28 0 00-.067.059c-.03.032-.05.059-.043.059a.28.28 0 00.067-.06zm.165-.188c.03-.033.05-.06.044-.06a.28.28 0 00-.067.06c-.031.032-.05.059-.044.059a.28.28 0 00.067-.06zm.166-.19c.03-.032.05-.058.043-.058a.28.28 0 00-.067.059c-.03.032-.05.059-.044.059a.28.28 0 00.068-.06zm.165-.188c.03-.033.05-.06.044-.06a.28.28 0 00-.068.06c-.03.032-.05.059-.043.059a.28.28 0 00.067-.06zm.153-.177c.024-.026.038-.048.031-.048a.186.186 0 00-.054.048c-.024.026-.038.047-.031.047a.186.186 0 00.054-.047zm.178-.201c.03-.033.05-.06.043-.06a.28.28 0 00-.067.06c-.03.032-.05.059-.044.059a.28.28 0 00.068-.06zm.165-.19c.03-.032.05-.058.044-.058a.28.28 0 00-.068.059c-.03.032-.05.059-.043.059a.28.28 0 00.067-.06zm.165-.188c.03-.033.05-.06.044-.06a.28.28 0 00-.067.06c-.03.032-.05.059-.044.059a.28.28 0 00.067-.06zm.166-.19c.03-.032.05-.058.043-.058a.28.28 0 00-.067.059c-.03.032-.05.059-.044.059a.28.28 0 00.068-.06zm.168-.194c.03-.037.029-.038-.009-.009-.04.031-.052.05-.032.05.005 0 .023-.018.041-.041z"/><path d="M2.822 9.273C1.74 8.226.612 7.079.574 6.986c-.03-.071-.036-.205-.036-.714v-.626l.065-.034c.051-.026.076-.028.113-.007.026.015.572.562 1.214 1.216l1.168 1.188.063-.066a261.9 261.9 0 001.384-1.58C8.15 2.232 9.545.636 9.679.496L9.825.34l-.015.72a53.7 53.7 0 01-.033 1.08l-.018.358-.116.137c-.17.2-4.437 5.15-5.24 6.08-.886 1.024-.962 1.11-.987 1.11-.012 0-.279-.249-.594-.553zm1.357-.717c.03-.037.028-.038-.01-.009-.022.018-.04.037-.04.042 0 .02.019.007.05-.033zm-2.667-.98C.908 6.97.845 6.9.845 6.83c0-.043-.01-.072-.02-.065-.012.007-.016.042-.01.078.008.047.2.254.676.733.366.367.67.667.676.667.007 0-.288-.3-.655-.667zm2.974.626c.03-.038.028-.038-.009-.01-.04.032-.052.051-.032.051a.145.145 0 00.04-.041zm.142-.166c.029-.037.028-.038-.01-.008a.151.151 0 00-.04.04c0 .02.019.008.05-.032zm.165-.189c.03-.037.029-.038-.009-.008a.145.145 0 00-.041.04c0 .02.02.008.05-.032zm.142-.165c.03-.037.028-.038-.01-.009-.039.031-.051.05-.032.05.005 0 .024-.018.042-.04zm-1.04-.142c.03-.037.029-.038-.009-.009-.022.018-.04.037-.04.042 0 .02.018.007.05-.033zm1.182-.023c.029-.038.028-.039-.01-.01a.161.161 0 00-.04.042c0 .02.019.007.05-.032zM4.06 7.35c.03-.037.028-.038-.01-.009-.022.018-.04.037-.04.042 0 .02.019.007.05-.033zm1.18-.023c.03-.038.03-.039-.008-.01-.023.019-.041.037-.041.042 0 .02.019.007.05-.032zm-1.018-.16c.03-.032.05-.059.044-.059a.28.28 0 00-.068.06c-.03.032-.05.058-.043.058a.28.28 0 00.067-.059zm1.16-.006c.03-.037.03-.038-.008-.009-.023.018-.042.037-.042.042 0 .02.02.007.05-.033zm-3.57-.059c0-.003-.228-.234-.507-.513l-.508-.508.004.212.004.213.014-.184.013-.183.484.485c.45.45.496.495.496.478zm3.712-.106c.03-.037.029-.038-.009-.009a.164.164 0 00-.04.041c0 .02.018.007.05-.032zM4.4 6.967c.024-.025.038-.047.031-.047a.186.186 0 00-.054.048c-.024.025-.038.047-.031.047a.186.186 0 00.054-.047zm1.267-.135c.03-.038.029-.039-.009-.01-.023.019-.041.037-.041.042 0 .02.02.007.05-.032zM4.554 6.79c.03-.032.05-.059.043-.059a.28.28 0 00-.067.06c-.03.032-.05.058-.044.058a.28.28 0 00.068-.059zm1.278-.147c.03-.038.029-.039-.008-.01-.04.032-.052.051-.033.051.005 0 .024-.019.041-.041zm-1.11-.048c.03-.037.029-.038-.009-.008-.04.03-.052.05-.032.05.005 0 .023-.019.041-.042zm1.252-.118c.03-.037.029-.038-.009-.009a.157.157 0 00-.041.042c0 .02.02.007.05-.033zm-1.086-.07c.029-.038.028-.039-.01-.01-.022.018-.04.037-.04.042 0 .02.019.007.05-.033zm1.228-.095c.03-.038.028-.038-.009-.009-.023.018-.041.036-.041.041 0 .02.02.007.05-.032zm-1.078-.077c.024-.026.037-.047.031-.047a.186.186 0 00-.055.047c-.023.026-.037.047-.03.047a.186.186 0 00.054-.047zm1.22-.088c.03-.038.028-.039-.01-.01a.161.161 0 00-.04.042c0 .02.019.007.05-.032zm-1.055-.1c.024-.027.038-.048.031-.048a.186.186 0 00-.054.047c-.024.026-.038.047-.031.047a.186.186 0 00.054-.047zm1.22-.09c.03-.037.029-.038-.009-.008-.023.018-.041.036-.041.041 0 .02.02.007.05-.032zM5.357 5.87c.03-.032.05-.059.044-.059a.28.28 0 00-.068.059c-.03.032-.05.06-.043.06a.28.28 0 00.067-.06zm1.208-.077c.03-.037.028-.038-.01-.009-.022.018-.04.037-.04.042 0 .02.019.007.05-.033zM5.522 5.68c.03-.032.05-.059.044-.059a.28.28 0 00-.067.059c-.03.033-.05.06-.044.06a.28.28 0 00.067-.06zm1.185-.053c.029-.038.028-.038-.01-.009-.039.03-.051.05-.032.05.005 0 .024-.018.042-.041zm-1.02-.136c.031-.032.05-.059.044-.059a.28.28 0 00-.067.059c-.03.033-.05.06-.044.06a.28.28 0 00.068-.06zm1.161-.03c.03-.037.029-.038-.009-.008-.039.03-.052.05-.032.05.005 0 .023-.019.041-.041zm-.995-.159c.03-.032.05-.059.044-.059a.28.28 0 00-.068.06c-.03.032-.05.058-.043.058a.28.28 0 00.067-.059zm1.137-.006c.03-.037.029-.038-.009-.009-.04.031-.052.05-.032.05.005 0 .023-.018.041-.04zm-.969-.189c.03-.037.029-.038-.008-.009-.023.018-.042.037-.042.042 0 .019.02.007.05-.033zm1.134 0c.03-.037.029-.038-.009-.009-.039.031-.051.05-.032.05.005 0 .024-.018.041-.04zm-.971-.183c.03-.032.05-.059.043-.059a.28.28 0 00-.067.06c-.03.032-.05.058-.044.058a.28.28 0 00.068-.059zm1.113.018c.03-.038.029-.039-.009-.01-.04.032-.052.051-.032.051.005 0 .023-.018.041-.041zm.142-.166c.03-.037.028-.038-.01-.008s-.05.05-.031.05a.156.156 0 00.04-.042zM6.352 4.73c.03-.037.029-.038-.009-.009-.04.031-.052.05-.032.05.005 0 .023-.018.041-.04zm1.229-.118c.029-.037.028-.038-.01-.009-.039.031-.051.05-.032.05.005 0 .024-.018.042-.04zm-1.063-.07c.029-.038.028-.04-.01-.01-.022.018-.04.037-.04.042 0 .02.019.007.05-.033zm.15-.172c.024-.026.038-.047.031-.047a.186.186 0 00-.055.047c-.023.026-.037.047-.03.047a.186.186 0 00.054-.047zm1.196-.089c.03-.037.029-.038-.009-.009-.04.031-.052.05-.032.05.005 0 .023-.018.041-.04zm-1.03-.1c.023-.026.037-.047.03-.047a.186.186 0 00-.054.047c-.024.026-.038.047-.031.047a.186.186 0 00.054-.047zm.153-.177c.03-.033.05-.06.044-.06a.28.28 0 00-.068.06c-.03.032-.05.059-.043.059a.28.28 0 00.067-.06zm.165-.19c.03-.032.05-.058.044-.058a.28.28 0 00-.067.059c-.03.032-.05.059-.044.059a.28.28 0 00.067-.06zm.166-.188c.03-.033.05-.06.043-.06a.28.28 0 00-.067.06c-.03.032-.05.059-.044.059a.28.28 0 00.068-.06zm.165-.19c.03-.032.05-.058.044-.058a.28.28 0 00-.068.059c-.03.032-.05.059-.043.059a.28.28 0 00.067-.06zm.165-.188c.031-.033.05-.06.044-.06a.28.28 0 00-.067.06c-.03.032-.05.059-.044.059a.28.28 0 00.067-.06zm.166-.19c.03-.032.05-.058.043-.058a.28.28 0 00-.067.059c-.03.032-.05.059-.043.059a.28.28 0 00.067-.06zm.165-.188c.03-.033.05-.06.044-.06a.28.28 0 00-.067.06c-.031.032-.05.059-.044.059a.28.28 0 00.067-.06zm.166-.19c.03-.032.05-.058.043-.058a.28.28 0 00-.067.059c-.03.032-.05.059-.044.059a.28.28 0 00.068-.06zm.153-.176c.024-.026.038-.048.031-.048a.186.186 0 00-.055.048c-.023.026-.037.047-.03.047a.186.186 0 00.054-.047zm.157-.183c.029-.038.028-.039-.01-.01-.022.018-.04.037-.04.042 0 .02.019.007.05-.032zm.174-.195c.023-.026.037-.048.03-.048a.186.186 0 00-.054.048c-.023.026-.037.047-.03.047a.186.186 0 00.054-.047zm.165-.19c.024-.025.038-.047.031-.047a.186.186 0 00-.054.048c-.024.026-.038.047-.031.047a.186.186 0 00.054-.047zm.18-.206c.03-.037.029-.038-.009-.009-.039.03-.051.05-.032.05.005 0 .024-.018.041-.041zm.166-.189c.03-.037.028-.038-.01-.009-.039.03-.051.05-.032.05.005 0 .024-.018.042-.041z"/><path d="M2.846 9.296C1.796 8.283.612 7.08.574 6.986c-.03-.071-.036-.205-.036-.714v-.626l.065-.034c.051-.026.076-.028.113-.007.026.015.573.563 1.216 1.217L3.1 8.012l.091-.103 1.76-2.015C8.105 2.281 9.742.412 9.782.38c.037-.03.04-.013.04.248 0 .458-.052 1.812-.072 1.863-.018.046-.309.385-3.257 3.803-2.398 2.781-3.052 3.532-3.076 3.532-.012 0-.27-.238-.57-.53zm-.75-1.13c0-.003-.262-.266-.584-.584l-.584-.58.578.586c.538.543.59.595.59.578zm2.839-.484c.03-.037.028-.038-.01-.009-.039.031-.051.05-.032.05.005 0 .024-.018.042-.04zm-1.04-.142c.03-.037.029-.038-.009-.009-.022.018-.04.037-.04.042 0 .02.018.007.05-.033zm1.182-.023c.029-.038.028-.039-.01-.01a.161.161 0 00-.04.042c0 .02.019.007.05-.032zM4.06 7.35c.03-.037.028-.038-.01-.009-.022.018-.04.037-.04.042 0 .02.019.007.05-.033zm.165-.189c.03-.037.029-.038-.009-.009-.023.018-.041.037-.041.042 0 .02.02.007.05-.033zm1.158 0c.029-.037.028-.038-.01-.009-.022.018-.04.037-.04.042 0 .02.019.007.05-.033zm.141-.165c.03-.037.029-.038-.009-.009a.164.164 0 00-.04.041c0 .02.018.007.05-.032zM4.39 6.972c.03-.037.029-.038-.008-.009-.04.031-.052.05-.033.05.005 0 .024-.018.041-.04zm-2.696.012c0-.003-.183-.187-.407-.408l-.408-.4.402.407c.373.378.413.418.413.401zm-.857-.177c-.006-.022-.012-.01-.012.03 0 .039.004.057.01.041a.135.135 0 00.002-.07zm3.719-.024c.03-.037.028-.038-.01-.008s-.051.05-.032.05c.005 0 .024-.019.042-.042zm.165-.189c.03-.037.029-.038-.009-.008-.04.03-.052.05-.032.05.005 0 .023-.019.041-.042zm1.252-.118c.03-.037.029-.038-.009-.009a.157.157 0 00-.041.042c0 .02.02.007.05-.033zm-5.15-.212a.49.49 0 00-.01-.164c-.01-.008-.016.063-.016.158 0 .208.017.212.025.006zm5.292.047c.03-.038.028-.038-.009-.009-.023.018-.041.036-.041.041 0 .02.02.007.05-.032zm-1.087-.07c.03-.038.029-.04-.009-.01a.157.157 0 00-.041.042c0 .019.02.006.05-.033zm.331-.379c.03-.037.029-.038-.009-.009-.023.018-.041.037-.041.042 0 .019.02.006.05-.033zm1.205-.07c.03-.038.028-.04-.01-.01-.022.018-.04.037-.04.042 0 .02.019.007.05-.033zm-1.04-.119c.03-.037.029-.038-.009-.009-.022.018-.04.037-.04.042 0 .019.018.006.05-.033zm1.182-.047c.029-.038.028-.038-.01-.009-.039.03-.051.05-.032.05.005 0 .024-.018.042-.041zM5.69 5.485c.03-.037.028-.038-.01-.009-.022.018-.04.037-.04.042 0 .019.019.006.05-.033zm.174-.195c.023-.026.037-.047.03-.047a.186.186 0 00-.054.047c-.023.026-.037.047-.03.047a.186.186 0 00.054-.047zm1.125.006c.03-.037.029-.038-.009-.009-.04.031-.052.05-.032.05.005 0 .023-.018.041-.04zm-.969-.189c.03-.037.029-.038-.008-.009-.023.018-.042.037-.042.042 0 .019.02.007.05-.033zm1.276-.165c.03-.038.029-.039-.009-.01-.04.032-.052.051-.032.051.005 0 .023-.018.041-.041zm-1.11-.024c.03-.037.028-.038-.01-.009-.022.018-.04.037-.04.042 0 .019.019.007.05-.033zm.33-.378c.03-.037.03-.038-.008-.009-.023.018-.042.037-.042.042 0 .02.02.007.05-.033zm.473-.543c.03-.038.029-.038-.009-.01-.023.019-.041.037-.041.042 0 .02.02.007.05-.032zm.165-.19c.03-.037.029-.037-.009-.008-.039.03-.051.05-.032.05.005 0 .024-.018.041-.041zm.166-.188c.03-.038.028-.038-.01-.009-.039.03-.051.05-.032.05.005 0 .024-.018.042-.041zm.165-.19c.03-.037.029-.037-.009-.008-.023.018-.041.036-.041.041 0 .02.02.007.05-.032zm.165-.188c.03-.038.029-.038-.008-.009-.023.018-.042.036-.042.041 0 .02.02.007.05-.032zm.166-.19c.03-.037.028-.037-.01-.008-.022.018-.04.036-.04.041 0 .02.019.007.05-.032zm.165-.188c.03-.038.029-.038-.009-.009-.04.03-.052.05-.032.05.005 0 .023-.018.041-.041zm.166-.19c.029-.037.028-.037-.01-.008-.039.03-.051.05-.032.05.005 0 .024-.018.042-.041zm.165-.188c.03-.038.028-.038-.009-.009-.023.018-.041.036-.041.041 0 .02.02.007.05-.032zm.33-.378c.03-.037.03-.038-.008-.009-.04.03-.052.05-.033.05.005 0 .024-.018.042-.041zm.166-.189c.03-.037.029-.038-.009-.009-.04.03-.052.05-.032.05.005 0 .023-.018.041-.041zm.165-.189c.03-.037.029-.038-.009-.009-.039.03-.051.05-.032.05.005 0 .024-.018.041-.041z"/><path d="M2.87 9.32C1.855 8.341.612 7.078.574 6.986c-.03-.071-.036-.205-.036-.714v-.626l.065-.034c.051-.026.076-.028.113-.007.026.015.573.563 1.216 1.217l1.169 1.19.07-.081L5.51 5.253C8.62 1.69 9.736.418 9.782.38c.037-.03.04-.01.04.26 0 .466-.052 1.799-.072 1.85-.02.05-.146.198-3.327 3.887-2.505 2.905-2.98 3.449-3.006 3.449-.012 0-.258-.228-.547-.506zm-.82-1.201c0-.003-.22-.224-.49-.49l-.49-.484.483.49c.45.455.497.5.497.484zm2.176-.957c.03-.037.029-.038-.009-.009-.023.018-.041.037-.041.042 0 .02.02.007.05-.033zm.165-.189c.03-.037.029-.038-.008-.009-.04.031-.052.05-.033.05.005 0 .024-.018.041-.04zm-2.743-.035a5.25 5.25 0 00-.23-.23l-.23-.225.223.23c.208.214.237.242.237.225zm-.81-.117c-.008-.019-.014-.013-.015.015 0 .025.005.038.013.03.007-.007.008-.028.001-.045zm3.719-.037c.03-.037.028-.038-.01-.008s-.051.05-.032.05c.005 0 .024-.019.042-.042zM.815 6.182c-.006-.042-.01-.008-.01.077 0 .084.004.119.01.077a.752.752 0 000-.154zm4.214.06c.03-.038.029-.04-.009-.01a.157.157 0 00-.041.042c0 .019.02.006.05-.033zm.331-.379c.03-.037.029-.038-.009-.009-.023.018-.041.037-.041.042 0 .019.02.006.05-.033zm.165-.189c.03-.037.029-.038-.009-.009-.022.018-.04.037-.04.042 0 .019.018.006.05-.033zm.166-.189c.03-.037.028-.038-.01-.009-.022.018-.04.037-.04.042 0 .019.019.006.05-.033zm.165-.189c.03-.037.029-.038-.009-.009-.023.018-.041.037-.041.042 0 .019.02.006.05-.033zm.33-.378c.03-.037.03-.038-.008-.009-.023.018-.041.037-.041.042 0 .019.019.007.05-.033zm.804-.921c.03-.038.029-.038-.009-.01-.023.019-.041.037-.041.042 0 .02.02.007.05-.032zm.165-.19c.03-.037.029-.037-.009-.008-.039.03-.051.05-.032.05.005 0 .024-.018.041-.041zm.166-.188c.03-.038.028-.038-.01-.009-.039.03-.051.05-.032.05.005 0 .024-.018.042-.041zm.165-.19c.03-.037.029-.037-.009-.008-.023.018-.041.036-.041.041 0 .02.02.007.05-.032zm.165-.188c.03-.038.029-.038-.008-.009-.023.018-.042.036-.042.041 0 .02.02.007.05-.032zm.166-.19c.03-.037.028-.037-.01-.008-.022.018-.04.036-.04.041 0 .02.019.007.05-.032zm.165-.188c.03-.038.029-.038-.009-.009-.04.03-.052.05-.032.05.005 0 .023-.018.041-.041zm.166-.19c.029-.037.028-.037-.01-.008-.039.03-.051.05-.032.05.005 0 .024-.018.042-.041z"/><path d="M2.87 9.32C1.855 8.341.612 7.078.574 6.986c-.03-.071-.036-.205-.036-.714v-.626l.065-.034c.051-.026.076-.028.113-.007.026.015.573.563 1.216 1.217L3.101 8.01l.07-.081 2.009-2.3C8.415 1.926 9.74.414 9.786.377c.042-.035.043-.012.026.72-.01.416-.025.9-.034 1.078l-.016.322-.118.138c-.552.649-5.405 6.276-5.9 6.843a3.736 3.736 0 01-.328.348c-.011 0-.257-.228-.546-.506zm-.868-1.248c0-.004-.156-.16-.348-.349l-.348-.342.342.348c.318.324.354.36.354.343zM.814 6.206c-.005-.03-.01-.006-.01.053 0 .058.005.082.01.053a.337.337 0 000-.106zm5.042-.91c.03-.037.029-.038-.009-.009-.023.018-.041.037-.041.042 0 .019.02.006.05-.033z"/><path d="M2.894 9.344C1.914 8.4.612 7.078.574 6.986c-.03-.071-.036-.205-.036-.714v-.626l.065-.034c.051-.026.076-.028.113-.007.026.015.573.562 1.215 1.215L3.1 8.008l.051-.054c.029-.03.867-.989 1.865-2.132C7.932 2.476 9.546.632 9.688.482l.132-.14.001.33a38.43 38.43 0 01-.059 1.772c-.007.043-.077.148-.184.271L8.073 4.463C4.278 8.872 3.449 9.826 3.417 9.826c-.012 0-.248-.217-.523-.482zm-.939-1.32a5.97 5.97 0 00-.23-.23l-.23-.224.223.23c.208.214.237.241.237.224zM.813 6.23c-.006-.016-.012-.003-.012.03 0 .032.006.046.012.03a.091.091 0 000-.06z"/></svg>