<svg width="27" height="27" fill="none" xmlns="http://www.w3.org/2000/svg"><path fill-rule="evenodd" clip-rule="evenodd" d="M2.742 2.186A6.386 6.386 0 015.05.683C5.876.36 6.824.138 8.216.079 9.603.016 10.048 0 13.584 0c3.536 0 3.98.016 5.367.08 1.387.063 2.335.28 3.16.603a6.386 6.386 0 012.308 1.503 6.42 6.42 0 011.498 2.303c.318.826.54 1.773.604 3.16.063 1.387.08 1.832.08 5.368 0 3.536-.017 3.98-.08 5.367-.064 1.387-.28 2.335-.604 3.16a6.386 6.386 0 01-1.503 2.309 6.386 6.386 0 01-2.308 1.503c-.826.318-1.773.54-3.16.603-1.387.064-1.832.08-5.368.08-3.536 0-3.98-.016-5.367-.08-1.387-.063-2.335-.28-3.16-.603a6.386 6.386 0 01-2.309-1.503 6.386 6.386 0 01-1.503-2.308c-.318-.826-.54-1.774-.603-3.16-.064-1.388-.08-1.832-.08-5.368 0-3.536.016-3.98.08-5.368.063-1.387.28-2.334.603-3.16a6.367 6.367 0 011.503-2.303zm18.517.683c-.46-.18-1.148-.392-2.419-.45-1.37-.063-1.784-.074-5.262-.074-3.477 0-3.89.01-5.261.074-1.27.058-1.959.27-2.42.45a4.057 4.057 0 00-1.498.974c-.455.455-.735.89-.974 1.498-.18.46-.391 1.149-.45 2.42-.058 1.37-.074 1.783-.074 5.261s.01 3.89.074 5.262c.059 1.27.27 1.959.45 2.419.239.609.52 1.043.974 1.498.456.455.89.736 1.498.974.461.18 1.15.392 2.42.45 1.37.058 1.784.074 5.261.074 3.478 0 3.891-.01 5.262-.074 1.27-.058 1.959-.27 2.42-.45a4.057 4.057 0 001.497-.974c.456-.455.736-.89.974-1.498.18-.46.392-1.149.45-2.42.058-1.37.074-1.783.074-5.26 0-3.479-.01-3.892-.074-5.263-.058-1.27-.27-1.958-.45-2.419a4.057 4.057 0 00-.974-1.498 4.056 4.056 0 00-1.498-.974zm-7.68 16.839a6.686 6.686 0 110-13.372 6.686 6.686 0 010 13.372zm0-2.345a4.34 4.34 0 004.34-4.34 4.34 4.34 0 00-4.34-4.342 4.34 4.34 0 00-4.341 4.341 4.34 4.34 0 004.34 4.34zm6.955-9.73a1.562 1.562 0 100-3.123 1.562 1.562 0 000 3.123z" fill="#4E4E4E"/></svg>