<svg width="140" height="135" fill="none" xmlns="http://www.w3.org/2000/svg"><path d="M90.367 112.2c.081-.434-.052-.654-.393-.654-2.528 0-10.218 9.325-7.73 9.325 1.255 0 7.676-6.233 8.123-8.671zm-17.063 1.233c.664-3.597-2.012 1.12-.502 1.442.257-.537.424-1.016.502-1.442zm-9.375-1.45c.083-.46-.044-.688-.385-.688-1.37 0-4.668 4.548-5.575 5.987 2.107-.094 5.538-3.021 5.96-5.299zm-23.564.545c-.388 2.099-3.224 2.578-2.903.834.138-.745 1.364-1.242 1.437-1.633.044-.243-.055-.363-.3-.363-1.89 0-5.964 6.918-6.316 8.817-.315 1.71 2.12.305 3.036-.363 3.192-2.298 5.204-5.496 7.9-8.262.515-.529.955-.88 1.228-.88.976 0 1.388.423 1.231 1.271-.143.773-1.08 2.418-2.814 4.933.047.012.094.023.14.037 1.222-1.33 5.22-4.927 6.66-5.713.534-.291 2.466-.845 2.346-.199l-3.551 5.15c2.593-2.604 5.66-5.513 7.685-5.513.295 0 .414.134.367.4.042-.232-5.704 8.279-5.915 9.433-.067.362.12.545.56.545.763 0 2.861-1.442 4.179-2.835.507-1.576 1.598-3.163 3.272-4.765 1.987-1.899 3.703-2.849 5.142-2.849 1.294 0 1.843.545 1.64 1.633-.567 3.083-5.136 5.613-7.862 5.875-.435.774-.698 1.368-.768 1.779-.537 3.118 5.454-.471 7.399-2.004.55-1.576 1.606-3.104 3.163-4.58 3.208-3.037 6.501-3.06 6.407-2.558-.169.925-1.702-.851-5.376 3.917-1.27 1.651-4.543 6.638-2.03 6.638 1.97 0 5.037-3.806 6.076-5.624-1.9.185-1.205-4.1.883-4.1 1.491 0 1.421 1.502 1.005 2.824 1.924-1.222 3.77-3.835 6.144-4.023 3.645-.286 2.046 2.181.463 3.991-1.372 1.571-2.799 3.087-4.186 4.642-.745.837-2.182 2.99.003 1.922.346-.169.715-.38 1.109-.634.51-.331 1.684-1.182 2.546-1.847.62-1.742 1.96-3.418 4.025-5.028 2.395-1.861 4.68-2.792 6.855-2.792.817 0 2.525.02 2.455.4 0 0-5.306 8.111-5.53 9.324-.208 1.134 1.216.254 1.862-.24-.146-2.595 3.3-3.389 2.947-1.467-.151.819-1.185 1.196-1.536 1.867-.352.674 1.577 1.516 4.558-2.267 1.76-2.235 3.848-5.992 6.147-7.309.695-.399 1.432-.442 2.205-.125.378.3.266 1.142.183 1.596-.352 1.913-2.304 4.759-3.669 6.783l.084.146c1.39-1.165 5.509-5.727 7.089-7.346 1.2-1.231 1.07-1.136 2.624-1.416 1.266-.226.469.602-.38 1.958-1.101 1.762-4.517 7.115-4.668 7.926-.172.939 1.273.402 2.192-.009-.31-1.382.74-2.858 1.995-2.858 1.137 0 1.187 1.12.499 1.759-.359.334-.908.737-1.13 1.162-.351.674 1.578 1.519 4.559-2.267 1.763-2.235 3.848-5.992 6.147-7.309.698-.399 1.432-.442 2.205-.125.378.3.266 1.142.182 1.596-.351 1.913-2.304 4.759-3.668 6.783l.083.146c1.383-1.159 5.515-5.733 7.09-7.346 1.203-1.231 1.07-1.136 2.624-1.416 1.265-.226.469.602-.38 1.958-1.101 1.762-4.517 7.115-4.668 7.926-.195 1.062 1.83.174 2.958-.368.135-2.387 1.835-4.686 4.384-6.67 2.395-1.861 4.681-2.792 6.855-2.792.817 0 2.525.02 2.455.4 0 0-5.306 8.111-5.53 9.324-.068.363.047.546.339.546.562 0 1.629-.751 3.199-2.25.177-.097.479.237.36.434-1.664 1.861-3.203 2.792-4.619 2.792-1.148 0-1.617-.568-1.409-1.705.071-.388.399-1.099.982-2.141-2.468 2.515-4.298 3.772-5.496 3.772-.802 0-1.289-.317-1.458-.948-1.627.931-5.759 2.33-5.309-.103.055-.291.175-.617.365-.979 1.101-1.802 2.203-3.603 3.306-5.405-.065.023-.13.049-.197.072-.308.199-5.265 5.59-6.845 6.82-.529.411-.937.617-1.232.617-.708 0-1.038-.134-.989-.4 0 0-.232-.077.12-.654 1.664-2.735 3.903-5.71 5.295-8.453.308-.606.388-.98.245-1.125-.562 0-1.114.254-1.661.762-2.866 2.667-5.803 9.716-9.93 9.83a1.621 1.621 0 01-1.447-.739c-1.297.807-5.186 1.969-4.759-.349.054-.291.174-.616.364-.979l3.304-5.405c-.065.023-.13.049-.198.072-.307.2-5.264 5.59-6.844 6.82-.529.412-.938.617-1.232.617-.708 0-1.039-.134-.99-.4 0 0-.228-.077.12-.653 1.661-2.736 3.906-5.71 5.296-8.454.307-.605.388-.979.245-1.125-.563 0-1.115.254-1.661.762-2.864 2.667-5.814 9.716-9.93 9.83-.732.02-1.307-.365-1.604-1.019-1.731 1.265-4.608 1.784-4.158-.651.07-.388.399-1.099.982-2.141-2.468 2.515-4.298 3.771-5.496 3.771-1.3 0-1.737-.851-1.427-2.392-.867.682-1.853 1.393-2.392 1.718-2.864 1.733-5.793.44-2.312-3.554 1.062-1.219 2.103-2.358 3.278-3.483.502-.48 3.238-2.958 1.424-2.958-1.747 0-4.218 2.938-6.061 3.937-.167.188-1.247 3.126-4.609 5.476-1.262.882-2.356 1.325-3.285 1.325-1.987 0-2.671-1.062-2.27-2.978-3.184 2.33-9.527 4.988-8.787.328-1.437 1.236-3.47 2.65-4.491 2.65-3.328 0-1.351-3.135.044-5.405.737-1.21 1.377-2.164 1.921-2.866a3.332 3.332 0 01-.075-.183c-1.377.691-5.939 5.496-7.514 7.763-.302.434-2.452.973-2.358.471l5.21-7.98c-.037-.06-.076-.12-.113-.183-.646.314-2.067 1.608-4.27 3.883a126.05 126.05 0 00-3.46 3.663c-.226.288-2.34 1.368-2.148.326.092-.497 5.147-7.395 5.358-8.548 0-.003-5.876 6.441-7.547 7.677-2.476 1.827-5.897 2.361-5.16-1.633.62-3.361 5.246-8.271 8.414-8.271 1.219.02 1.708.671 1.469 1.978zm41.231 15.951c13.484-1.887 29.032-4.162 38.55-4.653 21.794-1.125 14.541 9.635-7.227 9.124-1.505-.034-1.737-.822-.888-.768 14.09.911 26.384-8.231 5.363-7.146-9.474.488-21.59 1.902-35.691 3.94-10.664 1.542-70.242 13.975-75.455-2.161C2.643 126.052 0 123.906 0 120.371c0-9.861 11.166-17.869 24.46-18.303 2.145-.069 3.82.199 5.02.651.195.154-.113.548-.355.531-1.036-.343-2.593-.506-4.668-.489-8.873.072-21.78 10.218-21.78 18.881 0 2.303 1.132 3.788 3.394 4.45-1.926-9.555 8.595-22.691 19.8-22.782 3.621-.029 6.613 1.701 6.613 4.984 0 10.05-13.354 18.715-23.479 18.795a12.102 12.102 0 01-1.804-.117c5.04 13.264 62.052 3.235 74.395 1.507zm-52.393-19.742c0-14.01-25.116 5.39-22.213 17.544 3.044.474 7.413-.897 11.031-2.741 6.173-3.146 11.182-8.408 11.182-14.803zm19.732-96.476c-7.956 3.477-14.423 9.136-19.404 16.97 4.494-5.18 9.956-9.18 16.34-12.131 2.101-.97 3.106-2.627 3.064-4.84zm-5.212 1.787c1.755-1.034 2.421-2.153 2.083-3.64-5.212 2.472-9.646 6.929-13.301 13.375 3.142-3.857 6.91-7.197 11.218-9.735zm0 18.512c-2.419 4.588-2.288 8.879-.573 14.454 1.091 3.55.51 7.686-1.58 12.391-1.494 3.36-2.111 6.198-1.856 8.508 2.491 20.245 24.462 34.069 49.568 23.246-30.102 15.282-58.337-7.295-63.349-33.86-2.767-14.67.214-27.043 12.565-35.003 4.689-3.02 8.391-4.953 11.33-6.03.323 2.167-.822 4.191-3.436 6.076-5.4 2.629-9.206 6.027-11.253 10.292-2.077 4.337-2.223 8.768-.604 13.201.422-.848.724-2.09.862-3.822.422-5.362 2.382-11.25 8.326-9.453zM91.07 83.847c7.957-3.477 14.424-9.136 19.404-16.97-4.493 5.179-9.956 9.179-16.34 12.13-2.1.971-3.105 2.63-3.064 4.84zm5.213-1.787c-1.755 1.033-2.422 2.152-2.083 3.64 5.212-2.473 9.646-6.93 13.301-13.376-3.142 3.86-6.912 7.2-11.218 9.736zm-.003-18.51c2.419-4.587 2.286-8.878.573-14.454-1.091-3.549-.51-7.686 1.58-12.39 1.494-3.361 2.111-6.2 1.854-8.509C97.795 7.952 75.824-5.872 50.719 4.952c30.101-15.283 58.336 7.294 63.348 33.86 2.768 14.67-.213 27.043-12.567 35.002-4.689 3.021-8.391 4.954-11.33 6.03-.323-2.167.822-4.19 3.436-6.075 5.4-2.627 9.206-6.027 11.252-10.293 2.078-4.336 2.224-8.767.604-13.201-.421.848-.723 2.09-.861 3.823-.417 5.361-2.375 11.249-8.321 9.453zm-53.916 3.347c-.127-5.288 3.846-10.138 7.27-11.472 4.98-1.938 11.457-.177 18.28 1.933 3.958 1.222 17.653 4.948 19.41-1.71C89.758 46.424 85.447 36 77.88 31.341c-13.562-8.351-28.67 2.855-30.341 18.897 2.502-1.679 5.626-3.095 9.373-4.246-2.01-.268-5.14.606-6.954 1.676 11.707-11.974 25.897.888 32.42-.53-1.676 4.41-5.946 7.397-10.749 7.217-9.552-.354-17.032-5.924-26.852.962C42.73 35.683 62.22 18.69 79.25 29.105c8.627 5.276 14.04 18.032 10.447 28.582-3.58 10.514-15.49 8.605-23.686 5.296-8.259-3.332-14.793-4.508-16.723-1.888 7.048-2 13.455 2.336 18.704 4.503 5.488 2.264 10.77 2.34 15.808.345-13.09 13.159-23.056-4.682-41.437.954zm22.325-35.44c2.479-.485 4.848 1.3 5.29 3.986.443 2.687-1.208 5.26-3.686 5.745-2.479.485-4.848-1.3-5.29-3.986-.446-2.69 1.208-5.259 3.686-5.744zM68.774 5.05c4.803-.942 9.393 2.515 10.25 7.723.856 5.204-2.34 10.19-7.144 11.128-4.803.943-9.393-2.515-10.25-7.722-.86-5.205 2.34-10.187 7.144-11.13zM51.526 67.98c-1.078-.349-2.237-.414-3.476-.194 8.748 15.151 26.394 18.666 39.112 7.166 11.792-10.66 11.409-29.552 1.414-41.575-4.314-5.187-10.32-7.82-17.828-8.082 7.328.842 13.017 4.002 16.802 9.692 7.81 11.737 8.46 28.733-2.39 38.349-10.05 8.905-25.214 7.012-33.634-5.356zm85.142 44.221c.081-.434-.049-.654-.393-.654-2.528 0-10.219 9.325-7.73 9.325 1.252 0 7.673-6.233 8.123-8.671z" fill="#205157"/></svg>