<svg width="149" height="145" viewBox="0 0 149 145" fill="none" xmlns="http://www.w3.org/2000/svg">
<path d="M96.1768 120.511C96.2626 120.045 96.1213 119.809 95.7584 119.809C93.0678 119.809 84.8827 129.824 87.5317 129.824C88.8672 129.824 95.7002 123.13 96.1768 120.511ZM78.0165 121.836C78.7231 117.972 75.8746 123.038 77.4817 123.384C77.756 122.808 77.9334 122.293 78.0165 121.836ZM68.0386 120.278C68.1273 119.784 67.9915 119.539 67.6285 119.539C66.1711 119.539 62.6604 124.424 61.6961 125.969C63.9377 125.868 67.5897 122.725 68.0386 120.278ZM42.9595 120.864C42.5466 123.118 39.5292 123.633 39.87 121.759C40.0168 120.959 41.3219 120.425 41.3995 120.005C41.4466 119.744 41.3413 119.616 41.0809 119.616C39.0692 119.616 34.7328 127.046 34.3587 129.085C34.0235 130.922 36.6142 129.413 37.5896 128.696C40.9866 126.227 43.1285 122.793 45.9964 119.821C46.545 119.254 47.0133 118.877 47.3042 118.877C48.3433 118.877 48.7811 119.331 48.6148 120.241C48.4624 121.072 47.4649 122.839 45.6195 125.54C45.6694 125.552 45.7193 125.565 45.7692 125.58C47.0687 124.151 51.3247 120.287 52.857 119.444C53.4251 119.131 55.481 118.536 55.3536 119.229L51.5741 124.761C54.3339 121.965 57.598 118.84 59.7537 118.84C60.0668 118.84 60.1943 118.984 60.1444 119.269C60.1887 119.021 54.0734 128.162 53.849 129.401C53.777 129.79 53.9765 129.987 54.4447 129.987C55.2566 129.987 57.4899 128.438 58.892 126.942C59.4323 125.249 60.5933 123.544 62.375 121.824C64.4891 119.784 66.3151 118.763 67.8474 118.763C69.2245 118.763 69.8092 119.349 69.5931 120.517C68.989 123.829 64.1262 126.546 61.2251 126.828C60.7623 127.659 60.4825 128.297 60.4076 128.738C59.8368 132.087 66.2126 128.233 68.2824 126.586C68.8671 124.893 69.9921 123.253 71.649 121.667C75.0628 118.404 78.5679 118.38 78.4681 118.92C78.288 119.913 76.656 118.006 72.7463 123.127C71.3941 124.899 67.9112 130.256 70.585 130.256C72.6826 130.256 75.9467 126.169 77.0522 124.215C75.0295 124.415 75.7693 119.812 77.9916 119.812C79.5793 119.812 79.5044 121.425 79.0611 122.845C81.1088 121.532 83.0733 118.726 85.6004 118.524C89.4796 118.217 87.7783 120.867 86.0936 122.811C84.6333 124.498 83.1149 126.126 81.638 127.797C80.8456 128.696 79.316 131.008 81.6408 129.861C82.0093 129.68 82.4028 129.453 82.8212 129.18C83.3643 128.824 84.6139 127.911 85.5311 127.196C86.1906 125.326 87.6176 123.525 89.8148 121.796C92.364 119.797 94.7969 118.797 97.1105 118.797C97.9806 118.797 99.7983 118.818 99.7235 119.226C99.7235 119.226 94.0764 127.938 93.8381 129.241C93.6165 130.459 95.1321 129.514 95.8193 128.984C95.6641 126.196 99.3328 125.344 98.9559 127.408C98.7952 128.288 97.6952 128.692 97.3211 129.413C96.9471 130.137 99.0003 131.041 102.173 126.978C104.046 124.577 106.268 120.542 108.715 119.128C109.455 118.699 110.239 118.653 111.062 118.993C111.464 119.315 111.344 120.22 111.256 120.707C110.882 122.762 108.804 125.819 107.352 127.993C107.382 128.045 107.41 128.098 107.44 128.15C108.92 126.899 113.303 121.998 114.985 120.26C116.263 118.938 116.124 119.039 117.778 118.739C119.125 118.496 118.277 119.386 117.374 120.842C116.202 122.734 112.566 128.484 112.406 129.355C112.223 130.364 113.761 129.787 114.739 129.346C114.409 127.861 115.526 126.276 116.861 126.276C118.072 126.276 118.125 127.478 117.393 128.165C117.011 128.524 116.426 128.956 116.191 129.413C115.817 130.137 117.87 131.044 121.043 126.978C122.918 124.577 125.138 120.542 127.585 119.128C128.327 118.699 129.109 118.653 129.931 118.993C130.333 119.315 130.214 120.22 130.125 120.707C129.751 122.762 127.673 125.819 126.221 127.993C126.252 128.045 126.279 128.098 126.31 128.15C127.781 126.905 132.179 121.992 133.855 120.26C135.135 118.938 134.994 119.039 136.648 118.739C137.995 118.496 137.147 119.386 136.243 120.842C135.071 122.734 131.436 128.484 131.275 129.355C131.067 130.496 133.223 129.542 134.423 128.959C134.567 126.396 136.376 123.927 139.089 121.796C141.638 119.797 144.071 118.797 146.385 118.797C147.255 118.797 149.073 118.818 148.998 119.226C148.998 119.226 143.351 127.938 143.112 129.241C143.04 129.631 143.162 129.827 143.473 129.827C144.071 129.827 145.207 129.021 146.878 127.411C147.066 127.306 147.388 127.665 147.26 127.877C145.49 129.876 143.852 130.876 142.345 130.876C141.123 130.876 140.624 130.266 140.846 129.045C140.921 128.628 141.27 127.865 141.891 126.745C139.264 129.447 137.316 130.796 136.041 130.796C135.188 130.796 134.67 130.456 134.49 129.778C132.758 130.778 128.36 132.28 128.84 129.668C128.898 129.355 129.025 129.005 129.228 128.616C130.4 126.681 131.572 124.746 132.747 122.811C132.677 122.836 132.608 122.863 132.536 122.888C132.209 123.102 126.933 128.892 125.251 130.213C124.689 130.655 124.254 130.876 123.941 130.876C123.187 130.876 122.835 130.732 122.888 130.447C122.888 130.447 122.641 130.364 123.015 129.744C124.786 126.807 127.169 123.611 128.651 120.664C128.978 120.014 129.064 119.613 128.912 119.456C128.313 119.456 127.726 119.729 127.144 120.275C124.093 123.139 120.968 130.71 116.576 130.833C115.908 130.851 115.382 130.557 115.035 130.039C113.655 130.906 109.516 132.155 109.97 129.665C110.028 129.352 110.156 129.002 110.358 128.613C111.53 126.678 112.702 124.743 113.874 122.808C113.805 122.832 113.736 122.86 113.664 122.885C113.337 123.099 108.061 128.889 106.379 130.21C105.817 130.652 105.382 130.873 105.068 130.873C104.315 130.873 103.963 130.729 104.016 130.443C104.016 130.443 103.772 130.361 104.143 129.741C105.911 126.804 108.299 123.608 109.779 120.661C110.106 120.011 110.192 119.61 110.039 119.453C109.441 119.453 108.853 119.726 108.272 120.272C105.224 123.136 102.084 130.707 97.7035 130.83C96.9249 130.851 96.3125 130.437 95.9967 129.735C94.154 131.094 91.0922 131.652 91.5716 129.036C91.6464 128.619 91.9955 127.855 92.6162 126.736C89.9894 129.438 88.0415 130.787 86.7669 130.787C85.3842 130.787 84.9187 129.873 85.2485 128.217C84.3258 128.95 83.2756 129.714 82.702 130.063C79.6541 131.925 76.5369 130.535 80.2415 126.245C81.372 124.936 82.4804 123.713 83.73 122.504C84.2648 121.989 87.177 119.327 85.2457 119.327C83.3864 119.327 80.7569 122.483 78.7951 123.556C78.6178 123.759 77.4679 126.914 73.8907 129.438C72.5468 130.385 71.383 130.861 70.3938 130.861C68.2797 130.861 67.5509 129.72 67.9777 127.662C64.5889 130.164 57.8391 133.019 58.626 128.015C57.0965 129.343 54.9324 130.861 53.8462 130.861C50.3051 130.861 52.4082 127.493 53.8933 125.056C54.6775 123.755 55.3591 122.731 55.9382 121.977C55.9105 121.912 55.8828 121.848 55.8579 121.781C54.3921 122.523 49.5375 127.684 47.8612 130.118C47.5397 130.585 45.251 131.164 45.3508 130.624L50.8953 122.054C50.8565 121.989 50.8149 121.925 50.7761 121.857C50.0889 122.195 48.576 123.584 46.2319 126.028C44.7245 127.586 43.4971 128.898 42.5494 129.962C42.3083 130.272 40.0584 131.431 40.2635 130.312C40.3604 129.778 45.7415 122.369 45.9659 121.131C45.9659 121.127 39.712 128.049 37.9332 129.376C35.2981 131.339 31.6571 131.912 32.4413 127.622C33.1008 124.013 38.0246 118.739 41.3967 118.739C42.6935 118.76 43.2144 119.459 42.9595 120.864ZM86.8417 137.996C101.192 135.969 117.74 133.525 127.87 132.998C151.065 131.79 143.345 143.347 120.178 142.798C118.576 142.762 118.33 141.915 119.233 141.973C134.229 142.952 147.313 133.133 124.941 134.298C114.858 134.822 101.962 136.34 86.9553 138.53C75.6059 140.186 12.1974 153.54 6.65008 136.208C2.81243 135.39 0 133.084 0 129.287C0 118.696 11.8842 110.094 26.0323 109.628C28.3155 109.555 30.0971 109.843 31.3745 110.327C31.5823 110.493 31.2554 110.916 30.9977 110.898C29.8949 110.53 28.2379 110.355 26.0295 110.373C16.5864 110.45 2.84845 121.348 2.84845 130.652C2.84845 133.127 4.05378 134.721 6.46166 135.433C4.41122 125.169 15.6083 111.06 27.5341 110.962C31.3884 110.931 34.5721 112.79 34.5721 116.316C34.5721 127.11 20.3603 136.417 9.58442 136.503C8.93327 136.509 8.2932 136.466 7.66422 136.377C13.0286 150.624 73.705 139.851 86.8417 137.996ZM31.0808 116.791C31.0808 101.744 4.35026 122.581 7.43977 135.635C10.6789 136.144 15.3284 134.672 19.1799 132.691C25.7497 129.312 31.0808 123.66 31.0808 116.791ZM52.0812 13.1688C43.6134 16.9037 36.7306 22.9815 31.4299 31.396C36.2124 25.8333 42.0257 21.5372 48.8199 18.3665C51.056 17.3238 52.1255 15.5453 52.0812 13.1688ZM46.5339 15.0884C48.4015 13.9783 49.1108 12.7762 48.7506 11.1786C43.2033 13.8342 38.4846 18.621 34.5943 25.5451C37.9387 21.4023 41.9481 17.8145 46.5339 15.0884ZM46.5339 34.9715C43.9598 39.8993 44.0983 44.5082 45.9243 50.4971C47.0853 54.3087 46.4674 58.7521 44.2424 63.8056C42.6519 67.4149 41.9952 70.463 42.2668 72.9438C44.9185 94.6882 68.3018 109.536 95.0213 97.9111C62.9846 114.326 32.9345 90.0762 27.6006 61.5426C24.6552 45.787 27.8278 32.4968 40.9728 23.9475C45.9631 20.7031 49.9033 18.6271 53.0316 17.471C53.3752 19.7985 52.156 21.9726 49.3741 23.9965C43.6273 26.8208 39.5763 30.4699 37.3984 35.0512C35.1872 39.7092 35.0321 44.4684 36.7555 49.2306C37.2044 48.3199 37.5258 46.986 37.6727 45.1246C38.1216 39.3657 40.208 33.0427 46.5339 34.9715ZM96.9249 90.0578C105.393 86.3229 112.275 80.2451 117.576 71.8306C112.794 77.3932 106.98 81.6894 100.186 84.8601C97.9501 85.9027 96.8806 87.6844 96.9249 90.0578ZM102.472 88.1382C100.605 89.2483 99.8953 90.4503 100.255 92.048C105.803 89.3924 110.522 84.6056 114.412 77.6815C111.067 81.8274 107.055 85.4152 102.472 88.1382ZM102.469 68.2582C105.044 63.3303 104.902 58.7214 103.079 52.7326C101.918 48.9209 102.536 44.4776 104.761 39.424C106.351 35.8148 107.008 32.7667 106.734 30.2859C104.082 8.54143 80.6987 -6.3065 53.9792 5.31855C86.016 -11.0963 116.066 13.1534 121.4 41.6871C124.345 57.4427 121.173 70.7328 108.025 79.2822C103.035 82.5266 99.0945 84.6026 95.9662 85.7586C95.6226 83.4312 96.8418 81.257 99.6237 79.2331C105.37 76.412 109.421 72.7598 111.599 68.1785C113.811 63.5205 113.966 58.7613 112.242 53.999C111.793 54.9098 111.472 56.2437 111.325 58.105C110.882 63.8639 108.798 70.187 102.469 68.2582ZM45.0875 71.8521C44.9518 66.173 49.1801 60.963 52.8238 59.531C58.1245 57.4488 65.0184 59.3408 72.2808 61.607C76.4925 62.9194 91.0673 66.9212 92.9376 59.7702C95.5284 49.8623 90.9398 38.6666 82.8877 33.6621C68.4542 24.6926 52.3749 36.7286 50.596 53.9592C53.2588 52.1561 56.5839 50.6351 60.5711 49.3993C58.432 49.111 55.1014 50.0494 53.1701 51.1993C65.6307 38.3385 80.7319 52.153 87.6757 50.629C85.8913 55.3667 81.3471 58.5742 76.2348 58.381C66.0685 58.0008 58.1078 52.0181 47.6561 59.4144C45.4782 38.3262 66.2209 20.0745 84.3452 31.261C93.5278 36.9279 99.2884 50.629 95.4646 61.9596C91.6547 73.2535 78.978 71.202 70.2553 67.648C61.4661 64.0694 54.5112 62.806 52.458 65.621C59.9588 63.4714 66.7779 68.1294 72.3639 70.4569C78.2049 72.8886 83.827 72.9714 89.1886 70.8279C75.2567 84.9613 64.6498 65.7989 45.0875 71.8521ZM68.8477 33.7878C71.4856 33.2665 74.0071 35.1831 74.4781 38.0686C74.9492 40.9542 73.1924 43.7171 70.5546 44.2384C67.9167 44.7597 65.3952 42.8431 64.9242 39.9576C64.4503 37.069 66.2098 34.3091 68.8477 33.7878ZM73.1952 5.42281C78.3074 4.41087 83.1925 8.12439 84.1041 13.7177C85.0157 19.3079 81.6131 24.6619 76.5008 25.6708C71.3886 26.6828 66.5036 22.9692 65.5919 17.376C64.6776 11.7858 68.0829 6.43475 73.1952 5.42281ZM54.8382 73.0143C53.6911 72.6402 52.458 72.5697 51.1391 72.8058C60.4492 89.0796 79.2301 92.8545 92.7658 80.5027C105.315 69.0524 104.908 48.7615 94.2704 35.8485C89.6791 30.2767 83.2867 27.4494 75.2955 27.1673C83.0955 28.0719 89.1498 31.4665 93.1787 37.578C101.491 50.1843 102.181 68.4391 90.635 78.767C79.9395 88.3314 63.7992 86.2983 54.8382 73.0143ZM145.454 120.511C145.54 120.045 145.401 119.809 145.035 119.809C142.345 119.809 134.16 129.824 136.809 129.824C138.142 129.824 144.974 123.13 145.454 120.511Z" fill="#FEF6F1"/>
</svg>
