<svg width="132" height="128" fill="none" xmlns="http://www.w3.org/2000/svg"><path d="M85.204 106.382c.076-.411-.05-.62-.371-.62-2.384 0-9.635 8.841-7.288 8.841 1.183 0 7.236-5.909 7.659-8.221zm-16.089 1.17c.626-3.411-1.897 1.061-.474 1.367.243-.509.4-.964.474-1.367zm-8.84-1.376c.08-.435-.04-.652-.362-.652-1.292 0-4.402 4.312-5.256 5.677 1.986-.09 5.221-2.864 5.619-5.025zm-22.217.518c-.366 1.989-3.039 2.444-2.737.79.13-.707 1.286-1.178 1.355-1.548.042-.231-.052-.344-.282-.344-1.782 0-5.624 6.559-5.955 8.359-.297 1.621 1.998.29 2.862-.344 3.01-2.179 4.907-5.211 7.447-7.834.486-.501.901-.834 1.16-.834.92 0 1.307.401 1.16 1.205-.135.734-1.018 2.293-2.653 4.678.044.01.088.021.132.035 1.151-1.262 4.922-4.672 6.28-5.417.503-.276 2.324-.801 2.211-.189l-3.348 4.883c2.445-2.469 5.336-5.227 7.246-5.227.278 0 .39.127.346.379.04-.219-5.378 7.85-5.577 8.944-.064.344.113.517.528.517.72 0 2.698-1.367 3.94-2.688.478-1.495 1.507-3 3.085-4.518 1.873-1.8 3.491-2.702 4.848-2.702 1.22 0 1.738.517 1.547 1.549-.535 2.923-4.843 5.322-7.413 5.571-.41.733-.658 1.296-.724 1.686-.506 2.956 5.142-.447 6.976-1.9.518-1.495 1.514-2.943 2.982-4.342 3.025-2.88 6.13-2.902 6.041-2.426-.16.877-1.605-.806-5.069 3.714-1.197 1.565-4.283 6.294-1.914 6.294 1.858 0 4.75-3.608 5.729-5.333-1.792.176-1.136-3.887.832-3.887 1.407 0 1.34 1.424.948 2.677 1.814-1.158 3.554-3.635 5.793-3.814 3.436-.271 1.93 2.068.437 3.784-1.294 1.489-2.639 2.927-3.947 4.402-.702.793-2.057 2.834.002 1.822.327-.16.675-.36 1.046-.601.48-.314 1.588-1.121 2.4-1.752.585-1.651 1.849-3.24 3.795-4.767 2.259-1.765 4.414-2.647 6.464-2.647.77 0 2.38.019 2.315.379 0 0-5.003 7.69-5.214 8.841-.197 1.075 1.146.241 1.755-.227-.138-2.461 3.112-3.214 2.779-1.392-.143.777-1.117 1.134-1.449 1.771-.331.638 1.488 1.437 4.299-2.15 1.659-2.119 3.628-5.682 5.795-6.93.656-.379 1.35-.419 2.08-.119.355.285.25 1.083.171 1.513-.331 1.814-2.172 4.513-3.459 6.432.028.046.052.092.079.138 1.31-1.104 5.194-5.43 6.684-6.965 1.132-1.166 1.009-1.077 2.475-1.342 1.193-.214.441.571-.359 1.857-1.038 1.67-4.259 6.745-4.401 7.514-.162.891 1.2.382 2.067-.008-.292-1.31.697-2.71 1.88-2.71 1.073 0 1.119 1.061.471 1.668-.338.317-.856.698-1.065 1.102-.331.638 1.488 1.44 4.298-2.15 1.662-2.119 3.628-5.682 5.796-6.93.658-.379 1.35-.419 2.079-.119.356.285.25 1.083.172 1.513-.332 1.814-2.173 4.513-3.459 6.432l.079.138c1.303-1.099 5.199-5.435 6.684-6.965 1.134-1.166 1.009-1.077 2.474-1.342 1.193-.214.442.571-.358 1.857-1.038 1.67-4.259 6.745-4.401 7.514-.185 1.007 1.725.165 2.788-.349.128-2.263 1.731-4.442 4.134-6.324 2.258-1.765 4.414-2.647 6.463-2.647.771 0 2.381.019 2.315.379 0 0-5.003 7.69-5.214 8.841-.064.344.044.517.319.517.531 0 1.537-.712 3.017-2.133.167-.092.452.225.339.411-1.569 1.765-3.019 2.648-4.355 2.648-1.082 0-1.524-.539-1.328-1.616.066-.368.376-1.042.926-2.031-2.327 2.385-4.053 3.576-5.182 3.576-.756 0-1.215-.3-1.375-.898-1.534.882-5.43 2.209-5.005-.098a3.35 3.35 0 01.344-.928c1.038-1.708 2.076-3.416 3.117-5.125-.061.022-.123.046-.187.068-.289.19-4.963 5.3-6.453 6.467-.498.39-.884.585-1.161.585-.668 0-.98-.127-.933-.379 0 0-.218-.073.113-.62 1.569-2.593 3.68-5.414 4.993-8.015.29-.574.366-.929.231-1.067-.531 0-1.051.241-1.566.723-2.703 2.528-5.472 9.212-9.363 9.32a1.529 1.529 0 01-1.365-.701c-1.222.766-4.89 1.868-4.487-.33a3.41 3.41 0 01.344-.929l3.115-5.124c-.061.021-.123.046-.187.067-.289.19-4.963 5.301-6.453 6.467-.498.39-.884.585-1.161.585-.668 0-.98-.127-.933-.379 0 0-.216-.073.113-.62 1.566-2.593 3.682-5.414 4.993-8.015.29-.574.366-.929.23-1.067-.53 0-1.05.241-1.566.723-2.7 2.528-5.481 9.212-9.362 9.32-.69.019-1.232-.346-1.512-.966-1.632 1.199-4.345 1.692-3.92-.617.066-.369.375-1.043.925-2.031-2.327 2.385-4.053 3.576-5.182 3.576-1.225 0-1.637-.806-1.345-2.268-.817.647-1.748 1.321-2.256 1.629-2.7 1.644-5.462.417-2.18-3.37 1.002-1.156 1.984-2.236 3.09-3.302.475-.455 3.055-2.805 1.344-2.805-1.647 0-3.977 2.786-5.715 3.733-.157.179-1.176 2.964-4.345 5.192-1.19.837-2.221 1.256-3.098 1.256-1.873 0-2.518-1.007-2.14-2.823-3.002 2.209-8.982 4.729-8.285.311-1.355 1.172-3.272 2.512-4.234 2.512-3.137 0-1.274-2.972.041-5.124.695-1.148 1.299-2.052 1.812-2.718-.024-.057-.05-.114-.071-.173-1.299.655-5.6 5.211-7.084 7.36-.285.412-2.313.923-2.225.447l4.912-7.566-.105-.173c-.609.297-1.95 1.524-4.026 3.681a118.97 118.97 0 00-3.262 3.473c-.214.273-2.207 1.297-2.025.309.086-.471 4.853-7.011 5.051-8.105 0-.003-5.54 6.107-7.116 7.279-2.334 1.733-5.56 2.239-4.865-1.548.584-3.186 4.946-7.842 7.934-7.842 1.148.019 1.61.636 1.384 1.876zm38.876 15.123c12.713-1.789 27.372-3.946 36.347-4.412 20.548-1.067 13.709 9.136-6.815 8.651-1.418-.032-1.637-.779-.837-.728 13.285.864 24.877-7.804 5.057-6.775-8.933.463-20.357 1.803-33.652 3.735-10.054 1.462-66.228 13.251-71.143-2.049-3.4-.723-5.891-2.758-5.891-6.109 0-9.35 10.528-16.943 23.062-17.355 2.023-.065 3.601.19 4.733.617.184.147-.106.52-.334.504-.977-.325-2.445-.48-4.401-.463-8.366.068-20.537 9.688-20.537 17.901 0 2.185 1.068 3.592 3.201 4.22-1.816-9.06 8.104-21.515 18.669-21.601 3.414-.027 6.235 1.613 6.235 4.726 0 9.529-12.59 17.744-22.137 17.82a11.399 11.399 0 01-1.701-.111c4.752 12.577 58.506 3.067 70.144 1.429zm-49.4-18.718c0-13.283-23.68 5.11-20.943 16.634 2.87.449 6.988-.85 10.4-2.599 5.82-2.983 10.544-7.972 10.544-14.035zM46.14 11.625c-7.502 3.297-13.6 8.662-18.295 16.09 4.237-4.91 9.387-8.703 15.406-11.502 1.98-.92 2.928-2.49 2.889-4.588zm-4.914 1.694c1.654-.98 2.283-2.04 1.963-3.451-4.914 2.344-9.094 6.57-12.54 12.682 2.962-3.657 6.514-6.824 10.577-9.23zm0 17.552c-2.28 4.35-2.158 8.419-.54 13.706 1.028 3.364.48 7.287-1.49 11.748-1.41 3.186-1.991 5.877-1.75 8.067 2.349 19.195 23.064 32.302 46.735 22.04-28.382 14.49-55.003-6.916-59.729-32.105-2.609-13.908.202-25.64 11.847-33.187 4.421-2.864 7.912-4.697 10.683-5.717.304 2.054-.776 3.973-3.24 5.76-5.091 2.493-8.68 5.715-10.61 9.759-1.958 4.112-2.096 8.313-.569 12.517.398-.804.682-1.982.813-3.625.397-5.084 2.245-10.665 7.85-8.963zM85.866 79.5c7.502-3.297 13.6-8.662 18.295-16.09-4.236 4.91-9.386 8.703-15.405 11.502-1.981.92-2.929 2.493-2.89 4.588zm4.915-1.694c-1.655.98-2.283 2.04-1.964 3.451 4.914-2.344 9.095-6.57 12.541-12.682-2.963 3.66-6.517 6.827-10.577 9.23zm-.003-17.55c2.28-4.35 2.155-8.418.54-13.705-1.028-3.365-.48-7.287 1.49-11.748 1.41-3.186 1.991-5.877 1.748-8.067C92.206 7.54 71.492-5.567 47.821 4.695c28.381-14.49 55.003 6.916 59.728 32.105 2.609 13.908-.201 25.64-11.849 33.187-4.421 2.864-7.912 4.697-10.683 5.717-.304-2.054.776-3.974 3.24-5.76 5.091-2.49 8.68-5.715 10.61-9.759 1.958-4.112 2.096-8.313.57-12.517-.399.804-.683 1.982-.813 3.625-.393 5.083-2.24 10.665-7.846 8.962zm-50.835 3.173c-.12-5.013 3.626-9.612 6.854-10.877 4.696-1.838 10.803-.167 17.237 1.833 3.731 1.159 16.643 4.691 18.3-1.621 2.295-8.747-1.77-18.63-8.903-23.047-12.787-7.918-27.032 2.706-28.608 17.917 2.36-1.592 5.305-2.934 8.837-4.025-1.895-.255-4.845.574-6.556 1.589 11.039-11.353 24.417.841 30.569-.504-1.581 4.182-5.607 7.014-10.136 6.843-9.007-.335-16.059-5.617-25.318.913-1.93-18.616 16.447-34.728 32.503-24.853 8.135 5.002 13.238 17.097 9.85 27.1-3.374 9.97-14.605 8.158-22.332 5.02-7.787-3.158-13.948-4.273-15.767-1.788 6.645-1.898 12.686 2.214 17.635 4.268 5.174 2.147 10.155 2.22 14.905.328-12.343 12.476-21.74-4.44-39.07.904zm21.05-33.602c2.337-.46 4.57 1.232 4.988 3.78.417 2.547-1.14 4.986-3.476 5.446-2.337.46-4.571-1.232-4.988-3.78-.42-2.55 1.139-4.985 3.476-5.445zm3.851-25.039c4.529-.893 8.857 2.385 9.664 7.322.808 4.935-2.206 9.661-6.735 10.552-4.53.893-8.857-2.385-9.665-7.322-.81-4.935 2.207-9.659 6.736-10.552zM48.582 64.454c-1.017-.33-2.11-.392-3.278-.184 8.248 14.366 24.886 17.698 36.878 6.794 11.117-10.107 10.756-28.02 1.333-39.418-4.068-4.919-9.73-7.415-16.81-7.664 6.91.799 12.273 3.795 15.843 9.19 7.364 11.129 7.975 27.243-2.254 36.36-9.475 8.443-23.774 6.649-31.712-5.078zm80.276 41.928c.077-.411-.046-.62-.37-.62-2.384 0-9.635 8.841-7.288 8.841 1.18 0 7.234-5.909 7.658-8.221z" fill="#4E4E4E"/></svg>