<svg width="37" height="37" fill="none" xmlns="http://www.w3.org/2000/svg"><path fill-rule="evenodd" clip-rule="evenodd" d="M18.5 3.083A10.784 10.784 0 007.708 13.875c0 8.094 10.792 20.042 10.792 20.042s10.792-11.948 10.792-20.042A10.784 10.784 0 0018.5 3.084zm-7.708 10.792A7.711 7.711 0 0118.5 6.167a7.711 7.711 0 017.708 7.708c0 4.44-4.44 11.085-7.708 15.232-3.207-4.116-7.708-10.838-7.708-15.232z" fill="#FFA27A"/><path fill-rule="evenodd" clip-rule="evenodd" d="M18.5 17.73a3.854 3.854 0 100-7.709 3.854 3.854 0 000 7.708z" fill="#FFA27A"/></svg>