<svg width="31" height="36" fill="none" xmlns="http://www.w3.org/2000/svg"><g filter="url(#filter0_di)" fill-rule="evenodd" clip-rule="evenodd" fill="#FFA27A"><path d="M14 4.333A8.16 8.16 0 005.833 12.5C5.833 18.625 14 27.667 14 27.667s8.167-9.042 8.167-15.167A8.16 8.16 0 0014 4.333zM8.167 12.5A5.835 5.835 0 0114 6.667a5.835 5.835 0 015.833 5.833c0 3.36-3.36 8.388-5.833 11.527-2.427-3.115-5.833-8.202-5.833-11.527z"/><path d="M14 15.417a2.917 2.917 0 100-5.834 2.917 2.917 0 000 5.834z"/></g><defs><filter id="filter0_di" x="-4" y="-2" width="40" height="40" filterUnits="userSpaceOnUse" color-interpolation-filters="sRGB"><feFlood flood-opacity="0" result="BackgroundImageFix"/><feColorMatrix in="SourceAlpha" values="0 0 0 0 0 0 0 0 0 0 0 0 0 0 0 0 0 0 127 0"/><feOffset dx="2" dy="2"/><feGaussianBlur stdDeviation="3"/><feColorMatrix values="0 0 0 0 1 0 0 0 0 0.82995 0 0 0 0 0.525 0 0 0 0.33 0"/><feBlend mode="screen" in2="BackgroundImageFix" result="effect1_dropShadow"/><feBlend in="SourceGraphic" in2="effect1_dropShadow" result="shape"/><feColorMatrix in="SourceAlpha" values="0 0 0 0 0 0 0 0 0 0 0 0 0 0 0 0 0 0 127 0" result="hardAlpha"/><feOffset dx="1" dy="1"/><feGaussianBlur stdDeviation=".5"/><feComposite in2="hardAlpha" operator="arithmetic" k2="-1" k3="1"/><feColorMatrix values="0 0 0 0 1 0 0 0 0 1 0 0 0 0 1 0 0 0 0.36 0"/><feBlend mode="soft-light" in2="shape" result="effect2_innerShadow"/></filter></defs></svg>