<svg width="21" height="20" fill="none" xmlns="http://www.w3.org/2000/svg"><path fill-rule="evenodd" clip-rule="evenodd" d="M19.947 14.182c-.521-.263-3.06-1.541-3.533-1.717-.474-.185-.824-.263-1.165.264-.34.526-1.345 1.716-1.639 2.058-.303.35-.606.4-1.127.136-.511-.263-2.178-.81-4.158-2.623-1.524-1.395-2.576-3.122-2.87-3.648-.293-.527-.028-.81.228-1.073.237-.244.511-.625.777-.927.066-.088.132-.175.189-.253.123-.196.208-.38.322-.635.18-.35.085-.663-.038-.926C6.81 4.584 5.768 1.98 5.342.927 4.916-.127 4.48.049 4.177.049 3.874.049 3.533 0 3.192 0c-.35 0-.91.137-1.383.663C1.335 1.19 0 2.468 0 5.072c0 .614.104 1.22.265 1.795.521 1.863 1.648 3.394 1.847 3.657.256.342 3.57 5.853 8.818 7.979 5.257 2.107 5.257 1.404 6.204 1.307.947-.078 3.06-1.268 3.485-2.507.436-1.229.436-2.282.303-2.507-.123-.214-.464-.34-.975-.614z" fill="#4E4E4E"/></svg>