<svg width="67" height="65" fill="none" xmlns="http://www.w3.org/2000/svg"><g filter="url(#filter0_d)"><path fill-rule="evenodd" clip-rule="evenodd" d="M33.08 56.875c3.208 0 5.833-2.625 5.833-5.833H27.245c0 3.208 2.625 5.833 5.833 5.833zm17.5-17.5V24.792c0-8.955-4.755-16.45-13.126-18.434V4.375A4.37 4.37 0 0033.08 0a4.37 4.37 0 00-4.375 4.375v1.983c-8.341 1.984-13.125 9.45-13.125 18.434v14.583l-5.833 5.833v2.917h46.666v-2.917l-5.833-5.833zm-5.834 2.917H21.412v-17.5c0-7.234 4.405-13.125 11.667-13.125 7.263 0 11.667 5.891 11.667 13.125v17.5zM20.187 4.608l-4.17-4.17C9.017 5.774 4.408 14 4 23.332h5.833c.438-7.729 4.405-14.496 10.354-18.725zm36.138 18.725h5.833C61.721 14 57.112 5.775 50.142.437L46 4.608c5.892 4.23 9.888 10.996 10.325 18.725z" fill="#FEF6F1"/></g><defs><filter id="filter0_d" x="0" y="0" width="66.158" height="64.875" filterUnits="userSpaceOnUse" color-interpolation-filters="sRGB"><feFlood flood-opacity="0" result="BackgroundImageFix"/><feColorMatrix in="SourceAlpha" values="0 0 0 0 0 0 0 0 0 0 0 0 0 0 0 0 0 0 127 0"/><feOffset dy="4"/><feGaussianBlur stdDeviation="2"/><feColorMatrix values="0 0 0 0 0 0 0 0 0 0 0 0 0 0 0 0 0 0 0.25 0"/><feBlend in2="BackgroundImageFix" result="effect1_dropShadow"/><feBlend in="SourceGraphic" in2="effect1_dropShadow" result="shape"/></filter></defs></svg>