<svg width="36" height="21" fill="none" xmlns="http://www.w3.org/2000/svg"><path d="M34.348 1.414C34.592.599 34.348 0 33.185 0h-3.846c-.978 0-1.429.517-1.673 1.088 0 0-1.956 4.767-4.727 7.863-.896.897-1.304 1.182-1.793 1.182-.244 0-.598-.285-.598-1.1v-7.62C20.548.437 20.264 0 19.45 0h-6.043c-.611 0-.979.454-.979.884 0 .927 1.385 1.14 1.528 3.748v5.664c0 1.242-.224 1.467-.713 1.467-1.304 0-4.475-4.789-6.356-10.268C6.517.43 6.147 0 5.164 0H1.32C.219 0 0 .517 0 1.088c0 1.018 1.304 6.07 6.071 12.753 3.178 4.563 7.655 7.037 11.73 7.037 2.445 0 2.747-.55 2.747-1.496v-3.449c0-1.099.232-1.318 1.006-1.318.57 0 1.548.285 3.83 2.485 2.607 2.607 3.037 3.778 4.504 3.778h3.846c1.099 0 1.648-.55 1.331-1.634-.346-1.08-1.591-2.648-3.243-4.507-.897-1.06-2.242-2.2-2.649-2.77-.57-.734-.407-1.06 0-1.711 0 0 4.686-6.601 5.175-8.842z" fill="#4E4E4E"/></svg>