<svg width="50" height="60" viewBox="0 0 50 60" fill="none" xmlns="http://www.w3.org/2000/svg">
<path fill-rule="evenodd" clip-rule="evenodd" d="M19.5275 53.7771C19.5275 56.8021 21.975 59.2496 25 59.2496C28.025 59.2496 30.4725 56.8021 30.4725 53.7771H19.5275ZM25 12.5C32.59 12.5 38.75 18.66 38.75 26.25V45.5H11.25V26.25C11.25 18.66 17.41 12.5 25 12.5ZM25 0.125C22.7175 0.125 20.875 1.9675 20.875 4.25V7.4675C12.24 9.3375 5.75 17.0375 5.75 26.25V42.75L0.25 48.25V51H49.75V48.25L44.25 42.75V26.25C44.25 17.0375 37.76 9.3375 29.125 7.4675V4.25C29.125 1.9675 27.2825 0.125 25 0.125ZM22.25 18H27.75V29H22.25V18ZM22.25 34.5H27.75V40H22.25V34.5Z" fill="#FFA27A"/>
</svg>
